<svg width="201" height="43" viewBox="0 0 201 43" fill="none" xmlns="http://www.w3.org/2000/svg">
<path d="M50.7791 30.6384V26.9616H56.0068C56.9726 26.9616 57.7284 26.6904 58.2743 26.1479C58.8202 25.6055 59.0931 24.9425 59.0931 24.1589C59.0931 23.6164 58.9671 23.1342 58.7152 22.7123C58.4632 22.2904 58.1063 21.9589 57.6444 21.7178C57.2035 21.4767 56.6577 21.3562 56.0068 21.3562H50.7791V17.7699H55.5974C56.4162 17.7699 57.0776 17.579 57.5814 17.1973C58.0853 16.7954 58.3373 16.1927 58.3373 15.389C58.3373 14.6055 58.0853 14.0228 57.5814 13.6411C57.0776 13.2393 56.4162 13.0384 55.5974 13.0384H50.7791V9.36164H56.5422C57.9699 9.36164 59.1771 9.61279 60.1638 10.1151C61.1716 10.6174 61.9379 11.2904 62.4628 12.1342C62.9876 12.9781 63.2501 13.9123 63.2501 14.937C63.2501 16.2429 62.8092 17.3479 61.9274 18.2521C61.0456 19.1562 59.7439 19.779 58.0223 20.1205L58.1483 18.5233C60.0169 18.8648 61.455 19.558 62.4628 20.6027C63.4915 21.6475 64.0059 22.9333 64.0059 24.4603C64.0059 25.6256 63.7015 26.6804 63.0926 27.6247C62.5048 28.5489 61.644 29.2822 60.5102 29.8247C59.3975 30.3671 58.0538 30.6384 56.4792 30.6384H50.7791ZM47 30.6384V9.36164H51.8813V30.6384H47Z" fill="#031129"/>
<path d="M67.4897 30.6384V9.36164H72.4341V30.6384H67.4897Z" fill="#031129"/>
<path d="M82.4791 30.6384V9.66301H87.4235V30.6384H82.4791ZM75.5193 13.4904V9.36164H94.3833V13.4904H75.5193Z" fill="#031129"/>
<path d="M106.84 30.9699C105.182 30.9699 103.639 30.6986 102.211 30.1562C100.804 29.5936 99.5657 28.81 98.495 27.8055C97.4453 26.8009 96.6265 25.6356 96.0386 24.3096C95.4507 22.9635 95.1568 21.5169 95.1568 19.9699C95.1568 18.4228 95.4507 16.9863 96.0386 15.6603C96.6265 14.3142 97.4453 13.1489 98.495 12.1644C99.5448 11.1799 100.773 10.4164 102.18 9.87397C103.607 9.31142 105.15 9.03014 106.809 9.03014C108.573 9.03014 110.137 9.30137 111.501 9.84384C112.887 10.3863 114.094 11.1297 115.123 12.074L111.816 15.2685C111.228 14.6658 110.515 14.1936 109.675 13.8521C108.856 13.5105 107.901 13.3397 106.809 13.3397C105.843 13.3397 104.951 13.5005 104.132 13.8219C103.334 14.1233 102.642 14.5653 102.054 15.1479C101.487 15.7306 101.035 16.4338 100.699 17.2575C100.385 18.0813 100.227 18.9854 100.227 19.9699C100.227 20.9744 100.385 21.8886 100.699 22.7123C101.035 23.5361 101.487 24.2393 102.054 24.8219C102.642 25.4046 103.334 25.8566 104.132 26.1781C104.951 26.4995 105.843 26.6603 106.809 26.6603C107.943 26.6603 108.929 26.4895 109.769 26.1479C110.609 25.8064 111.333 25.3342 111.942 24.7315L115.28 27.926C114.21 28.8703 112.982 29.6137 111.596 30.1562C110.231 30.6986 108.646 30.9699 106.84 30.9699Z" fill="#031129"/>
<path d="M128.039 31C126.359 31 124.806 30.7187 123.378 30.1562C121.972 29.5936 120.733 28.81 119.662 27.8055C118.591 26.8009 117.762 25.6356 117.174 24.3096C116.586 22.9635 116.292 21.5169 116.292 19.9699C116.292 18.4027 116.586 16.9562 117.174 15.6301C117.762 14.3041 118.581 13.1489 119.631 12.1644C120.68 11.1598 121.909 10.3863 123.315 9.84384C124.743 9.28128 126.296 9 127.976 9C129.635 9 131.167 9.28128 132.574 9.84384C134.002 10.3863 135.24 11.1598 136.29 12.1644C137.361 13.1489 138.19 14.3142 138.778 15.6603C139.366 16.9863 139.66 18.4329 139.66 20C139.66 21.547 139.366 22.9936 138.778 24.3397C138.19 25.6658 137.371 26.8311 136.322 27.8356C135.272 28.8201 134.033 29.5936 132.605 30.1562C131.199 30.7187 129.677 31 128.039 31ZM127.976 26.6904C129.299 26.6904 130.453 26.4091 131.44 25.8466C132.448 25.284 133.225 24.5005 133.771 23.4959C134.317 22.4712 134.589 21.2959 134.589 19.9699C134.589 18.9653 134.432 18.0612 134.117 17.2575C133.802 16.4338 133.351 15.7306 132.763 15.1479C132.175 14.5452 131.472 14.0932 130.653 13.7918C129.855 13.4703 128.963 13.3096 127.976 13.3096C126.653 13.3096 125.488 13.5909 124.48 14.1534C123.494 14.6959 122.727 15.4694 122.181 16.474C121.636 17.4584 121.363 18.6237 121.363 19.9699C121.363 20.9744 121.52 21.8886 121.835 22.7123C122.15 23.5361 122.591 24.2493 123.158 24.8521C123.746 25.4347 124.449 25.8868 125.268 26.2082C126.087 26.5297 126.989 26.6904 127.976 26.6904Z" fill="#031129"/>
<path d="M143.113 30.6384V9.36164H148.058V30.6384H143.113Z" fill="#031129"/>
<path d="M152.655 30.6384V9.36164H156.119L157.599 13.611V30.6384H152.655ZM167.991 30.6384L154.891 14.5753L156.119 9.36164L169.22 25.4247L167.991 30.6384ZM167.991 30.6384L166.669 26.389V9.36164H171.613V30.6384H167.991Z" fill="#031129"/>
<path d="M182.466 30.9699C180.639 30.9699 179.064 30.6886 177.742 30.126C176.44 29.5434 175.243 28.6694 174.152 27.5041L177.364 24.4603C178.078 25.2438 178.865 25.8566 179.726 26.2986C180.608 26.7205 181.626 26.9315 182.78 26.9315C183.83 26.9315 184.639 26.7507 185.205 26.389C185.793 26.0274 186.087 25.5251 186.087 24.8822C186.087 24.2995 185.898 23.8274 185.52 23.4658C185.142 23.1041 184.639 22.7927 184.009 22.5315C183.4 22.2703 182.718 22.0192 181.962 21.7781C181.227 21.537 180.492 21.2658 179.757 20.9644C179.022 20.6429 178.34 20.2511 177.71 19.789C177.101 19.3068 176.608 18.7142 176.23 18.011C175.852 17.2877 175.663 16.3836 175.663 15.2986C175.663 13.9927 175.989 12.8676 176.639 11.9233C177.311 10.979 178.235 10.2658 179.411 9.78356C180.587 9.28128 181.941 9.03014 183.473 9.03014C185.027 9.03014 186.444 9.29133 187.725 9.8137C189.026 10.3361 190.097 11.0493 190.937 11.9534L187.725 14.9973C187.053 14.3342 186.371 13.842 185.678 13.5205C185.006 13.1991 184.24 13.0384 183.379 13.0384C182.518 13.0384 181.836 13.1991 181.332 13.5205C180.828 13.8219 180.576 14.2639 180.576 14.8466C180.576 15.389 180.765 15.8311 181.143 16.1726C181.521 16.4941 182.014 16.7753 182.623 17.0164C183.253 17.2575 183.935 17.4986 184.67 17.7397C185.426 17.9808 186.171 18.2621 186.906 18.5836C187.641 18.905 188.313 19.3169 188.922 19.8192C189.551 20.3014 190.055 20.9242 190.433 21.6877C190.811 22.4311 191 23.3553 191 24.4603C191 26.4895 190.244 28.0868 188.733 29.2521C187.221 30.3973 185.132 30.9699 182.466 30.9699Z" fill="#031129"/>
<path d="M14.5105 19.1414C13.841 19.811 13.0153 20.1458 12.0335 20.1458C11.1409 20.1458 10.3264 19.8434 9.58996 19.2386C8.87587 18.6338 8.51883 17.8022 8.51883 16.7437C8.51883 15.8365 8.82008 15.0481 9.42259 14.3785C10.0474 13.7089 10.8842 13.3741 11.9331 13.3741C12.848 13.3741 13.6625 13.6549 14.3766 14.2165C15.0907 14.7781 15.4589 15.5665 15.4812 16.5817C15.5035 17.597 15.1799 18.4502 14.5105 19.1414Z" fill="#E50123"/>
<path d="M27.0335 20.1458C28.0153 20.1458 28.841 19.811 29.5105 19.1414C30.1799 18.4502 30.5035 17.597 30.4812 16.5817C30.4589 15.5665 30.0907 14.7781 29.3766 14.2165C28.6625 13.6549 27.848 13.3741 26.9331 13.3741C25.8842 13.3741 25.0474 13.7089 24.4226 14.3785C23.8201 15.0481 23.5188 15.8365 23.5188 16.7437C23.5188 17.8022 23.8759 18.6338 24.59 19.2386C25.3264 19.8434 26.1409 20.1458 27.0335 20.1458Z" fill="#E50123"/>
<path fill-rule="evenodd" clip-rule="evenodd" d="M24 38.4782C32.6001 36.4467 39 28.7207 39 19.5C39 8.73045 30.2696 0 19.5 0C8.73045 0 0 8.73045 0 19.5C0 28.6909 6.35857 36.3967 14.9166 38.4583L24 43V38.4782ZM18.5806 12.404C17.9047 11.442 17.0389 10.6637 15.9833 10.0692C14.7559 9.35641 13.4059 9 11.9331 9C10.4826 9 9.15481 9.34561 7.94979 10.0368C6.74477 10.728 5.78522 11.6568 5.07113 12.8233C4.35704 13.9897 4 15.2857 4 16.7113C4 18.1154 4.34589 19.3898 5.03766 20.5346C5.72943 21.6794 6.65551 22.6082 7.8159 23.3211C8.97629 24.0123 10.2594 24.3903 11.6653 24.4551H12.0335C11.4533 25.5783 10.8619 26.6799 10.2594 27.7599C9.67922 28.84 9.06555 29.92 8.41841 31H13.7741C14.689 29.1856 15.5816 27.4035 16.4519 25.6539C17.2595 24.0303 17.9998 22.5369 18.6729 21.1737C17.8869 19.8187 17.5 18.3204 17.5 16.7113C17.5 15.1654 17.8575 13.7204 18.5806 12.404ZM23.4184 31C24.0656 29.92 24.6792 28.84 25.2594 27.7599C25.8619 26.6799 26.4533 25.5783 27.0335 24.4551H26.6653C25.2594 24.3903 23.9763 24.0123 22.8159 23.3211C21.6555 22.6082 20.7294 21.6794 20.0377 20.5346C19.3459 19.3898 19 18.1154 19 16.7113C19 15.2857 19.357 13.9897 20.0711 12.8233C20.7852 11.6568 21.7448 10.728 22.9498 10.0368C24.1548 9.34561 25.4826 9 26.9331 9C28.4059 9 29.7559 9.35641 30.9833 10.0692C32.2106 10.7604 33.1813 11.7 33.8954 12.8881C34.6318 14.0545 35 15.3505 35 16.7761C35 17.4458 34.8996 18.0938 34.6987 18.7202C34.5202 19.3466 34.2301 20.0594 33.8285 20.8586C33.1144 22.3058 32.3222 23.9043 31.4519 25.6539C30.5816 27.4035 29.689 29.1856 28.7741 31H23.4184Z" fill="#E50123"/>
</svg>
