<svg width="48" height="48" fill="none" xmlns="http://www.w3.org/2000/svg"><path d="M9.23 19H5.77C4.244 19 3 20.175 3 21.62v14.644c0 .79 1.295.79 1.295 0V21.619c0-.769.662-1.394 1.476-1.394h3.458c.814 0 1.476.625 1.476 1.394V42.38c0 .77-.662 1.395-1.476 1.395H5.771c-.814 0-1.476-.625-1.476-1.395v-2.524c0-.79-1.295-.79-1.295 0v2.524C3 43.825 4.243 45 5.77 45h3.46c1.527 0 2.77-1.175 2.77-2.62V21.62C12 20.174 10.757 19 9.23 19zM20.23 29h-3.46C15.244 29 14 30.148 14 31.559v10.882C14 43.852 15.243 45 16.77 45h3.46c1.527 0 2.77-1.148 2.77-2.559V31.559C23 30.148 21.757 29 20.23 29zm1.474 13.441c0 .751-.661 1.363-1.475 1.363h-3.458c-.814 0-1.476-.612-1.476-1.363V31.559c0-.751.662-1.363 1.476-1.363h3.458c.814 0 1.476.612 1.476 1.363v10.882zM31.23 21h-3.46C26.244 21 25 22.194 25 23.662v18.676C25 43.806 26.243 45 27.77 45h3.46c1.527 0 2.77-1.194 2.77-2.662V28.819c0-.802-1.295-.802-1.295 0v13.519c0 .781-.662 1.417-1.476 1.417h-3.458c-.814 0-1.476-.636-1.476-1.417V23.662c0-.781.662-1.417 1.476-1.417h3.458c.814 0 1.476.636 1.476 1.417v1.423c0 .803 1.295.803 1.295 0v-1.423C34 22.194 32.757 21 31.23 21zM42.23 13h-3.46C37.244 13 36 14.191 36 15.655v26.69C36 43.809 37.243 45 38.77 45h3.46c1.527 0 2.77-1.191 2.77-2.655v-26.69C45 14.191 43.757 13 42.23 13zm1.475 29.345c0 .78-.662 1.413-1.476 1.413h-3.458c-.814 0-1.476-.634-1.476-1.413v-26.69c0-.78.662-1.413 1.476-1.413h3.458c.814 0 1.476.634 1.476 1.413v26.69z" fill="#69EDFE"/><path d="M7.48 14.469c.45 0 .872-.123 1.236-.336l7.668 8.029a2.522 2.522 0 00-.335.893c-.113.662.035 1.33.417 1.879A2.46 2.46 0 0018.495 26a2.495 2.495 0 002.443-2.087 2.53 2.53 0 00-.19-1.477l7.236-5.903c.464.351.972.527 1.524.529a2.495 2.495 0 002.443-2.087 2.529 2.529 0 00-.205-1.51l7.282-5.94c.415.317.932.507 1.491.507C41.887 8.032 43 6.903 43 5.516S41.887 3 40.52 3c-1.368 0-2.481 1.129-2.481 2.516 0 .374.081.728.226 1.047l-7.295 5.951a2.452 2.452 0 00-1.04-.447c-1.347-.236-2.634.683-2.868 2.05a2.53 2.53 0 00.174 1.444l-7.25 5.913a2.45 2.45 0 00-2.728-.17L9.59 13.275c.235-.385.371-.837.371-1.322 0-1.387-1.113-2.516-2.48-2.516C6.113 9.437 5 10.566 5 11.953s1.113 2.516 2.48 2.516zM40.52 4.234c.697 0 1.265.575 1.265 1.282 0 .706-.568 1.281-1.265 1.281-.683 0-1.266-.587-1.266-1.281 0-.707.568-1.282 1.266-1.282zM28.26 14.327a1.272 1.272 0 011.246-1.063c.782 0 1.362.726 1.247 1.5a1.268 1.268 0 01-1.463 1.045 1.256 1.256 0 01-.818-.525c-.195-.28-.27-.62-.212-.957zm-8.732 8.42c.195.28.258.62.212.956a1.268 1.268 0 01-1.463 1.044c-.678-.12-1.148-.792-1.03-1.481.188-1.1 1.642-1.44 2.281-.52zM7.48 10.67c.698 0 1.266.575 1.266 1.282 0 .707-.568 1.282-1.266 1.282a1.275 1.275 0 01-1.265-1.282c0-.707.568-1.282 1.265-1.282z" fill="#69EDFE"/></svg>