<svg width="24" height="24" viewBox="0 0 24 24" fill="none" xmlns="http://www.w3.org/2000/svg">
<path d="M22.2857 0H1.66071C0.750004 0 0 0.803568 0 1.76785V22.2857C0 23.25 0.750004 24 1.66071 24H22.2857C23.1965 24 24 23.25 24 22.2857V1.76785C24 0.803568 23.1965 0 22.2857 0ZM7.23214 20.5714H3.69643V9.1608H7.23214V20.5714ZM5.46429 7.55359C4.28572 7.55359 3.37499 6.64287 3.37499 5.51787C3.37499 4.39287 4.28572 3.42858 5.46429 3.42858C6.58929 3.42858 7.50001 4.39287 7.50001 5.51787C7.50001 6.64287 6.58929 7.55359 5.46429 7.55359ZM20.5714 20.5714H16.9821V15.0001C16.9821 13.7143 16.9821 12 15.1607 12C13.2858 12 13.0179 13.4465 13.0179 14.9464V20.5714H9.48221V9.1608H12.8571V10.7143H12.9108C13.3929 9.80354 14.5714 8.83928 16.2857 8.83928C19.875 8.83928 20.5714 11.2499 20.5714 14.3037V20.5714Z" fill="white"/>
</svg>
