<svg width="60" height="60" viewBox="0 0 60 60" fill="none" xmlns="http://www.w3.org/2000/svg">
<path d="M52.8427 28.7975L46.0277 26.85C42.9587 25.9848 40.1632 24.3464 37.9085 22.0917C35.6538 19.837 34.0154 17.0415 33.1502 13.9725L31.2027 7.15748C31.1048 6.91905 30.9382 6.71511 30.724 6.57159C30.5099 6.42807 30.258 6.35144 30.0002 6.35144C29.7424 6.35144 29.4905 6.42807 29.2764 6.57159C29.0623 6.71511 28.8957 6.91905 28.7977 7.15748L26.8502 13.9725C25.985 17.0415 24.3466 19.837 22.092 22.0917C19.8373 24.3464 17.0417 25.9848 13.9727 26.85L7.15771 28.7975C6.89604 28.8718 6.66573 29.0294 6.50174 29.2464C6.33775 29.4634 6.24902 29.728 6.24902 30C6.24902 30.272 6.33775 30.5366 6.50174 30.7536C6.66573 30.9706 6.89604 31.1282 7.15771 31.2025L13.9727 33.15C17.0417 34.0152 19.8373 35.6536 22.092 37.9082C24.3466 40.1629 25.985 42.9585 26.8502 46.0275L28.7977 52.8425C28.872 53.1042 29.0296 53.3345 29.2466 53.4985C29.4636 53.6624 29.7282 53.7512 30.0002 53.7512C30.2722 53.7512 30.5368 53.6624 30.7538 53.4985C30.9708 53.3345 31.1284 53.1042 31.2027 52.8425L33.1502 46.0275C34.0154 42.9585 35.6538 40.1629 37.9085 37.9082C40.1632 35.6536 42.9587 34.0152 46.0277 33.15L52.8427 31.2025C53.1044 31.1282 53.3347 30.9706 53.4987 30.7536C53.6627 30.5366 53.7514 30.272 53.7514 30C53.7514 29.728 53.6627 29.4634 53.4987 29.2464C53.3347 29.0294 53.1044 28.8718 52.8427 28.7975Z" fill="#69EDFE"/>
</svg>
