<svg width="99" height="27" viewBox="0 0 99 27" fill="none" xmlns="http://www.w3.org/2000/svg">
<path d="M37.1186 21V6.53406H39.1438L44.0623 16.7222L48.9393 6.53406H50.9852V21H49.2493V9.65457L44.7029 19.0988H43.401L38.8545 9.73723V21H37.1186ZM57.0236 21.248C56.197 21.248 55.5082 21.0964 54.9571 20.7933C54.406 20.4765 53.9927 20.0632 53.7171 19.5534C53.4416 19.0299 53.3038 18.4719 53.3038 17.8795C53.3038 17.1631 53.4829 16.5569 53.8411 16.0609C54.2131 15.5512 54.7298 15.1654 55.3911 14.9036C56.0524 14.6419 56.8239 14.511 57.7056 14.511H60.4128C60.4128 13.8084 60.3301 13.2228 60.1648 12.7544C59.9995 12.286 59.7308 11.9347 59.3589 11.7005C58.9869 11.4663 58.4909 11.3491 57.8709 11.3491C57.251 11.3491 56.7205 11.5076 56.2797 11.8245C55.8388 12.1276 55.5633 12.5822 55.4531 13.1884H53.6758C53.7585 12.472 53.9996 11.8727 54.3991 11.3905C54.7986 10.8945 55.3015 10.5225 55.9077 10.2745C56.5277 10.0128 57.1821 9.88189 57.8709 9.88189C58.8491 9.88189 59.6551 10.061 60.2888 10.4192C60.9226 10.7636 61.391 11.2527 61.6941 11.8865C61.9972 12.5064 62.1487 13.2435 62.1487 14.0977V21H60.5988L60.4955 19.1401C60.3577 19.4294 60.1786 19.705 59.9582 19.9667C59.7515 20.2147 59.5035 20.4351 59.2142 20.628C58.9249 20.8209 58.5942 20.9724 58.2222 21.0827C57.864 21.1929 57.4645 21.248 57.0236 21.248ZM57.2716 19.7807C57.7263 19.7807 58.1465 19.6774 58.5322 19.4707C58.918 19.2641 59.2486 18.9885 59.5242 18.6441C59.8135 18.2859 60.0339 17.8864 60.1855 17.4455C60.337 17.0046 60.4128 16.5431 60.4128 16.0609V15.8543H57.8503C57.2027 15.8543 56.6723 15.9369 56.259 16.1022C55.8595 16.2676 55.5702 16.5018 55.3911 16.8049C55.212 17.0942 55.1224 17.4248 55.1224 17.7968C55.1224 18.1964 55.2051 18.5477 55.3704 18.8508C55.5357 19.1401 55.7768 19.3674 56.0937 19.5327C56.4243 19.6981 56.817 19.7807 57.2716 19.7807ZM64.6034 21V10.1299H66.174L66.298 12.1138C66.546 11.6178 66.8697 11.2045 67.2693 10.8738C67.6688 10.5432 68.151 10.2952 68.7159 10.1299C69.2945 9.96455 69.942 9.88189 70.6584 9.88189V11.7005H69.5838C69.1705 11.7005 68.771 11.7556 68.3852 11.8658C67.9995 11.976 67.6481 12.1551 67.3313 12.4031C67.0282 12.6511 66.7871 12.9886 66.608 13.4157C66.4289 13.8428 66.3393 14.3801 66.3393 15.0276V21H64.6034ZM80.0219 25.5464V19.2848C79.6775 19.9598 79.1815 20.4558 78.534 20.7727C77.8865 21.0896 77.1632 21.248 76.3641 21.248C75.3859 21.248 74.5249 21.0069 73.7809 20.5247C73.0369 20.0425 72.4583 19.3743 72.045 18.5201C71.6317 17.6659 71.425 16.6947 71.425 15.6063C71.425 14.5041 71.6317 13.5259 72.045 12.6717C72.4583 11.8038 73.03 11.1218 73.7602 10.6259C74.5042 10.1299 75.3584 9.88189 76.3228 9.88189C76.9841 9.88189 77.5489 9.97833 78.0173 10.1712C78.4995 10.3641 78.906 10.6121 79.2366 10.9152C79.5673 11.2045 79.829 11.5076 80.0219 11.8245L80.1872 10.1299H81.7578V25.5464H80.0219ZM76.5707 19.7394C77.2596 19.7394 77.8589 19.5741 78.3687 19.2434C78.8784 18.899 79.2711 18.4168 79.5466 17.7968C79.8221 17.1631 79.9599 16.4191 79.9599 15.5649C79.9599 14.7108 79.8221 13.9737 79.5466 13.3537C79.2711 12.72 78.8784 12.2378 78.3687 11.9071C77.8589 11.5627 77.2596 11.3905 76.5707 11.3905C75.9232 11.3905 75.3446 11.5627 74.8348 11.9071C74.3251 12.2378 73.9255 12.72 73.6362 13.3537C73.3469 13.9737 73.2023 14.7108 73.2023 15.5649C73.2023 16.4191 73.3469 17.1631 73.6362 17.7968C73.9255 18.4168 74.3251 18.899 74.8348 19.2434C75.3446 19.5741 75.9232 19.7394 76.5707 19.7394ZM84.281 21V6.12074H86.0169V21H84.281ZM89.7488 25.5464L92.208 19.8427H91.6087L87.5376 10.1299H89.4182L92.7867 18.4995L96.2998 10.1299H98.0977L91.5467 25.5464H89.7488Z" fill="white"/>
<g clip-path="url(#clip0_2176_83)">
<path fill-rule="evenodd" clip-rule="evenodd" d="M17.9093 1.47612L7.28122 1.47612L7.28122 4.75638C7.28122 5.10098 7.21247 5.44222 7.07895 5.76064C6.94544 6.07897 6.74975 6.36832 6.50298 6.61194C6.25628 6.85563 5.96334 7.04896 5.64098 7.18086C5.31862 7.31267 4.97314 7.38059 4.62421 7.38059L1.30295 7.38059L1.30295 15.2532L11.2667 25.094L21.8948 25.094L21.8948 21.8137C21.8948 21.4691 21.9635 21.1279 22.097 20.8094C22.2305 20.4911 22.4263 20.2018 22.673 19.9582C22.9197 19.7145 23.2126 19.5212 23.535 19.3892C23.8573 19.2574 24.2029 19.1895 24.5518 19.1895L27.873 19.1895L27.873 11.3169L17.9093 1.47612ZM7.94547 12.629L7.94547 8.03664L15.2522 8.03664L21.2305 13.9411L21.2305 18.5335L13.9237 18.5335L7.94547 12.629Z" fill="url(#paint0_linear_2176_83)"/>
</g>
<defs>
<linearGradient id="paint0_linear_2176_83" x1="1.38405" y1="12.5259" x2="1.35874" y2="23.5756" gradientUnits="userSpaceOnUse">
<stop stop-color="#69EDFE"/>
<stop offset="1" stop-color="#0167B4"/>
</linearGradient>
<clipPath id="clip0_2176_83">
<rect width="23.6179" height="26.5701" fill="white" transform="translate(26.5703 1.47612) rotate(90)"/>
</clipPath>
</defs>
</svg>
