<svg width="31" height="30" viewBox="0 0 31 30" fill="none" xmlns="http://www.w3.org/2000/svg">
<path fill-rule="evenodd" clip-rule="evenodd" d="M21.5334 23.7666C21.4667 23.7666 21.4001 23.7533 21.3401 23.7133C21.1534 23.6066 21.0934 23.3733 21.2001 23.1866L25.4134 15.8933C25.5201 15.7066 25.7534 15.6466 25.9401 15.7533C26.1267 15.8599 26.1867 16.0933 26.0801 16.2799L21.8667 23.5733C21.8001 23.6999 21.6667 23.7666 21.5334 23.7666Z" fill="white"/>
<path fill-rule="evenodd" clip-rule="evenodd" d="M9.49365 23.7668C9.36031 23.7668 9.23365 23.7001 9.16031 23.5735L4.96031 16.3068C4.85365 16.1201 4.92031 15.8868 5.10031 15.7801C5.28031 15.6735 5.52031 15.7401 5.62698 15.9201L9.82698 23.1868C9.93365 23.3735 9.86698 23.6068 9.68698 23.7135C9.62698 23.7468 9.56031 23.7668 9.49365 23.7668Z" fill="white"/>
<path fill-rule="evenodd" clip-rule="evenodd" d="M25.747 14.3933C25.6137 14.3933 25.487 14.3266 25.4137 14.2L21.1937 6.88664C21.087 6.69997 21.1537 6.46664 21.3337 6.35997C21.5204 6.25331 21.7537 6.31997 21.8604 6.49997L26.0804 13.8133C26.187 14 26.1204 14.2333 25.9404 14.34C25.8804 14.38 25.8137 14.3933 25.747 14.3933Z" fill="white"/>
<path fill-rule="evenodd" clip-rule="evenodd" d="M5.29315 14.38C5.22649 14.38 5.15982 14.3667 5.09982 14.3267C4.91315 14.22 4.85315 13.9867 4.95982 13.8L9.16649 6.51999C9.27315 6.33332 9.50649 6.27332 9.69315 6.37999C9.87982 6.48665 9.93982 6.71999 9.83315 6.90665L5.62649 14.1933C5.55315 14.3133 5.42649 14.38 5.29315 14.38Z" fill="white"/>
<path fill-rule="evenodd" clip-rule="evenodd" d="M20.9199 23.5868C20.7065 23.5868 20.5332 23.4134 20.5332 23.2001V6.90009C20.5332 6.68676 20.7065 6.51343 20.9199 6.51343C21.1332 6.51343 21.3065 6.68676 21.3065 6.90009V23.2001C21.2999 23.4134 21.1265 23.5868 20.9199 23.5868Z" fill="white"/>
<path fill-rule="evenodd" clip-rule="evenodd" d="M19.8599 24.2001C19.7933 24.2001 19.7266 24.1868 19.6666 24.1468L15.2999 21.6268L12.6199 20.0801C12.6199 20.0801 12.6199 20.0801 12.6133 20.0801L9.90662 18.5201L5.56662 16.0134C5.37995 15.9068 5.31995 15.6734 5.42662 15.4868C5.53328 15.3001 5.76662 15.2401 5.95328 15.3468L10.2933 17.8534L12.9933 19.4134H12.9999L15.6866 20.9668L20.0533 23.4868C20.2399 23.5934 20.2999 23.8268 20.1933 24.0135C20.1199 24.1335 19.9933 24.2001 19.8599 24.2001Z" fill="white"/>
<path fill-rule="evenodd" clip-rule="evenodd" d="M5.77314 14.8201C5.63981 14.8201 5.51314 14.7534 5.43981 14.6268C5.33314 14.4401 5.39981 14.2068 5.57981 14.1001L9.90647 11.6001L12.6131 10.0401L12.6198 10.0334L15.3265 8.47342L19.6465 5.98009C19.8331 5.87342 20.0665 5.94009 20.1731 6.12009C20.2798 6.30009 20.2131 6.54009 20.0331 6.64676L15.7131 9.14009L13.0065 10.7068L12.9998 10.7134L10.2931 12.2734L5.96647 14.7734C5.90647 14.8068 5.83981 14.8201 5.77314 14.8201Z" fill="white"/>
<path fill-rule="evenodd" clip-rule="evenodd" d="M20.3134 23.7334C20.1801 23.7334 20.0534 23.6667 19.9801 23.54L15.5201 15.8134L13.1534 19.92L13.1467 19.9334L11.0601 23.5334C10.9534 23.72 10.7201 23.78 10.5334 23.6734C10.3467 23.5667 10.2867 23.3334 10.3934 23.1467L12.4801 19.54L15.1801 14.86C15.1934 14.8334 15.2201 14.8067 15.2401 14.78C15.3934 14.6267 15.6334 14.6267 15.7867 14.78C15.8134 14.8067 15.8334 14.8334 15.8467 14.86L20.6401 23.16C20.7467 23.3467 20.6801 23.58 20.5001 23.6867C20.4401 23.72 20.3734 23.7334 20.3134 23.7334Z" fill="white"/>
<path fill-rule="evenodd" clip-rule="evenodd" d="M19.7263 24.7934H11.333C11.1196 24.7934 10.9463 24.62 10.9463 24.4067C10.9463 24.1934 11.1196 24.02 11.333 24.02H19.7263C19.9396 24.02 20.113 24.1934 20.113 24.4067C20.113 24.62 19.9396 24.7934 19.7263 24.7934Z" fill="white"/>
<path fill-rule="evenodd" clip-rule="evenodd" d="M15.5129 15.4334C15.3729 15.4334 15.2463 15.3601 15.1796 15.2401L12.4796 10.5668C12.4796 10.5668 12.4796 10.5668 12.4796 10.5601L10.3929 6.94011C10.2863 6.75344 10.3529 6.52011 10.5329 6.41344C10.7196 6.30677 10.9529 6.37344 11.0596 6.55344L13.1463 10.1734V10.1801L15.5129 14.2801L17.8796 10.1734C17.8796 10.1734 17.8796 10.1734 17.8796 10.1668L19.9596 6.56011C20.0663 6.37344 20.2996 6.31344 20.4863 6.42011C20.6729 6.52677 20.7329 6.76011 20.6263 6.94677L18.5463 10.5534V10.5601L15.8463 15.2401C15.7796 15.3601 15.6529 15.4334 15.5129 15.4334Z" fill="white"/>
<path fill-rule="evenodd" clip-rule="evenodd" d="M19.7004 6.07338H11.3271C11.1138 6.07338 10.9404 5.90005 10.9404 5.68672C10.9404 5.47338 11.1138 5.30005 11.3271 5.30005H19.7004C19.9138 5.30005 20.0871 5.47338 20.0871 5.68672C20.0871 5.90005 19.9138 6.07338 19.7004 6.07338Z" fill="white"/>
<path fill-rule="evenodd" clip-rule="evenodd" d="M10.1005 23.5668C9.8872 23.5668 9.71387 23.3934 9.71387 23.1801V6.90009C9.71387 6.68676 9.8872 6.51343 10.1005 6.51343C10.3139 6.51343 10.4872 6.68676 10.4872 6.90009V23.1868C10.4872 23.3934 10.3139 23.5668 10.1005 23.5668Z" fill="white"/>
<path fill-rule="evenodd" clip-rule="evenodd" d="M11.1667 24.1801C11.0334 24.1801 10.9067 24.1134 10.8334 23.9868C10.7267 23.8001 10.7934 23.5668 10.9734 23.4601L18.0134 19.3934C18.0134 19.3934 18.02 19.3934 18.02 19.3868L20.72 17.8268L25.0534 15.3268C25.24 15.2201 25.4734 15.2868 25.58 15.4668C25.6867 15.6468 25.62 15.8868 25.44 15.9934L21.1067 18.4934L18.4067 20.0534C18.4067 20.0534 18.4 20.0534 18.4 20.0601L11.3534 24.1268C11.2934 24.1601 11.2267 24.1801 11.1667 24.1801Z" fill="white"/>
<path fill-rule="evenodd" clip-rule="evenodd" d="M25.2799 14.8266C25.2132 14.8266 25.1465 14.8132 25.0865 14.7732L20.7265 12.2532L18.0199 10.6932L10.9865 6.63991C10.7999 6.53325 10.7399 6.29991 10.8465 6.11325C10.9532 5.92658 11.1865 5.86658 11.3732 5.97325L18.4199 10.0332L21.1199 11.5932L25.4799 14.1132C25.6665 14.2199 25.7265 14.4532 25.6199 14.6399C25.5399 14.7532 25.4132 14.8266 25.2799 14.8266Z" fill="white"/>
<path fill-rule="evenodd" clip-rule="evenodd" d="M10.1336 7.27995C10.1269 7.27995 10.1136 7.27995 10.0936 7.27995C9.84025 7.27328 9.59358 7.20662 9.37358 7.07995C8.89358 6.80662 8.58691 6.29328 8.58691 5.73995C8.58691 4.89328 9.28025 4.19995 10.1269 4.19995C10.9736 4.19995 11.6669 4.89328 11.6669 5.73995C11.6669 5.98662 11.6069 6.22662 11.4936 6.44662C11.3402 6.73995 11.0936 6.97995 10.7936 7.12662C10.6002 7.23328 10.3736 7.27995 10.1336 7.27995ZM10.1336 6.51328C10.2536 6.51328 10.3736 6.48662 10.4736 6.43328C10.6269 6.35995 10.7469 6.23995 10.8269 6.09328C10.8869 5.97995 10.9136 5.86662 10.9136 5.73995C10.9136 5.31328 10.5669 4.96662 10.1402 4.96662C9.71358 4.96662 9.36691 5.31328 9.36691 5.73995C9.36691 6.01995 9.52025 6.27995 9.76025 6.41328C9.86691 6.47995 10.0069 6.51328 10.1336 6.51328Z" fill="white"/>
<path fill-rule="evenodd" clip-rule="evenodd" d="M20.88 7.28003C20.8333 7.28003 20.7867 7.28003 20.74 7.27336C20.48 7.24669 20.2267 7.16003 20.0133 7.00669C19.8333 6.88669 19.68 6.72003 19.5667 6.52669C19.42 6.28669 19.3467 6.01336 19.3467 5.73336C19.3467 4.88669 20.04 4.19336 20.8867 4.19336C21.7333 4.19336 22.4267 4.88669 22.4267 5.73336C22.4267 6.28003 22.1333 6.78669 21.6667 7.06003C21.4267 7.20669 21.16 7.28003 20.88 7.28003ZM20.88 4.96669C20.4533 4.96669 20.1067 5.31336 20.1067 5.74003C20.1067 5.88003 20.1467 6.02003 20.22 6.13336C20.28 6.22669 20.3533 6.31336 20.4467 6.37336C20.5533 6.44669 20.68 6.49336 20.8133 6.50669H20.88C21.02 6.50669 21.1533 6.46669 21.2733 6.40003C21.5133 6.26003 21.6533 6.00669 21.6533 5.73336C21.6533 5.31336 21.3067 4.96669 20.88 4.96669Z" fill="white"/>
<path fill-rule="evenodd" clip-rule="evenodd" d="M26.2597 16.5933C25.9864 16.5933 25.7197 16.5199 25.4864 16.3866C25.1797 16.2133 24.9464 15.9333 24.8197 15.6066C24.7531 15.4333 24.7197 15.2466 24.7197 15.0533C24.7197 15.0466 24.7197 15.0333 24.7197 15.0133C24.7264 14.6799 24.8397 14.3599 25.0464 14.0933C25.1664 13.9399 25.3197 13.8133 25.4864 13.7133C25.7197 13.5799 25.9864 13.5066 26.2597 13.5066C27.1064 13.5066 27.7997 14.1999 27.7997 15.0466C27.8064 15.8999 27.1131 16.5933 26.2597 16.5933ZM25.4864 15.0466C25.4864 15.1466 25.5064 15.2399 25.5397 15.3266C25.6064 15.4933 25.7197 15.6333 25.8731 15.7199C25.9931 15.7866 26.1264 15.8266 26.2597 15.8266C26.6864 15.8266 27.0331 15.4799 27.0331 15.0533C27.0331 14.6266 26.6864 14.2799 26.2597 14.2799C26.1264 14.2799 25.9931 14.3133 25.8731 14.3866C25.7864 14.4333 25.7131 14.4999 25.6531 14.5799C25.5531 14.7066 25.4864 14.8733 25.4864 15.0466Z" fill="white"/>
<path fill-rule="evenodd" clip-rule="evenodd" d="M20.8798 25.9C20.0665 25.9 19.3932 25.2667 19.3398 24.4533C19.3398 24.4467 19.3398 24.44 19.3398 24.4267C19.3398 24.4 19.3398 24.38 19.3398 24.36C19.3398 24.1133 19.3998 23.8667 19.5198 23.6467C19.5465 23.5933 19.5798 23.54 19.6132 23.4933C19.7465 23.3 19.9198 23.14 20.1198 23.0267C20.1532 23.0067 20.1798 22.9933 20.2132 22.98C20.4198 22.88 20.6465 22.8267 20.8798 22.8267H20.9265C20.9665 22.8267 21.0065 22.8333 21.0465 22.8333C21.2598 22.86 21.4665 22.9267 21.6532 23.0333C21.6798 23.0467 21.7065 23.0667 21.7332 23.08C22.1598 23.3667 22.4132 23.8467 22.4132 24.36C22.4265 25.2067 21.7332 25.9 20.8798 25.9ZM20.8798 25.1333C21.3065 25.1333 21.6532 24.7867 21.6532 24.36C21.6532 24.1 21.5265 23.86 21.3132 23.72C21.2998 23.7133 21.2865 23.7 21.2732 23.6933C21.1798 23.64 21.0798 23.6067 20.9665 23.5933C20.9465 23.5933 20.9198 23.5867 20.8998 23.5867C20.8932 23.5867 20.8865 23.5867 20.8798 23.5867C20.7598 23.5867 20.6465 23.6133 20.5465 23.66C20.4198 23.72 20.3198 23.8067 20.2398 23.92C20.2198 23.9467 20.2065 23.9667 20.1932 24C20.1332 24.1133 20.1065 24.2333 20.1065 24.36C20.1132 24.7867 20.4532 25.1333 20.8798 25.1333Z" fill="white"/>
<path fill-rule="evenodd" clip-rule="evenodd" d="M10.1533 25.9001C9.30661 25.9001 8.61328 25.2067 8.61328 24.3601C8.61328 23.8134 8.90662 23.3067 9.37328 23.0334C9.58662 22.9067 9.83995 22.8334 10.0866 22.8201H10.1533C10.3666 22.8201 10.5733 22.8601 10.7666 22.9467C11.1066 23.0934 11.3866 23.3601 11.5466 23.6934C11.6466 23.9001 11.6999 24.1267 11.6999 24.3534C11.6933 25.2067 10.9999 25.9001 10.1533 25.9001ZM10.1533 23.5867C10.1466 23.5867 10.1399 23.5867 10.1333 23.5867H10.1266C9.99995 23.5934 9.87328 23.6267 9.76661 23.6934C9.52661 23.8334 9.38661 24.0867 9.38661 24.3601C9.38661 24.7867 9.73328 25.1334 10.1599 25.1334C10.5866 25.1334 10.9333 24.7867 10.9333 24.3601C10.9333 24.2401 10.9066 24.1334 10.8599 24.0267C10.7799 23.8601 10.6399 23.7267 10.4666 23.6534C10.3599 23.6067 10.2599 23.5867 10.1533 23.5867Z" fill="white"/>
<path fill-rule="evenodd" clip-rule="evenodd" d="M4.7734 16.5934C3.92673 16.5934 3.2334 15.9001 3.2334 15.0534C3.2334 14.2068 3.92673 13.5134 4.7734 13.5134C5.04673 13.5134 5.3134 13.5868 5.54673 13.7201C5.76673 13.8468 5.9534 14.0334 6.0934 14.2468C6.2334 14.4734 6.3134 14.7401 6.32007 15.0134V15.0534C6.32007 15.3601 6.2334 15.6534 6.06007 15.9134C5.92673 16.1068 5.7534 16.2734 5.54673 16.3934C5.30673 16.5201 5.04006 16.5934 4.7734 16.5934ZM4.7734 14.2734C4.34673 14.2734 4.00007 14.6201 4.00007 15.0468C4.00007 15.4734 4.34673 15.8201 4.7734 15.8201C4.90673 15.8201 5.04673 15.7868 5.16007 15.7134C5.26007 15.6534 5.3534 15.5734 5.42007 15.4734C5.50673 15.3468 5.5534 15.1934 5.5534 15.0401C5.5534 15.0334 5.5534 15.0268 5.5534 15.0268C5.5534 14.8868 5.5134 14.7534 5.44006 14.6401C5.3734 14.5268 5.28007 14.4401 5.16673 14.3734C5.04007 14.3134 4.90673 14.2734 4.7734 14.2734Z" fill="white"/>
<path fill-rule="evenodd" clip-rule="evenodd" d="M25.1072 15.4332H5.94721C5.73388 15.4332 5.56055 15.2599 5.56055 15.0466C5.56055 14.8332 5.73388 14.6599 5.94721 14.6599H25.1072C25.3205 14.6599 25.4939 14.8332 25.4939 15.0466C25.4939 15.2599 25.3139 15.4332 25.1072 15.4332Z" fill="white"/>
</svg>
