<svg width="30" height="30" viewBox="0 0 30 30" fill="none" xmlns="http://www.w3.org/2000/svg">
<g clip-path="url(#clip0_2179_953)">
<path d="M19.9832 12.5279C20.483 12.0331 20.7933 11.3472 20.7933 10.59C20.7933 9.08599 19.5694 7.86243 18.0652 7.86243C16.906 7.86243 15.8786 8.59726 15.495 9.67404C15.3342 9.64439 15.1688 9.6281 14.9995 9.6281C14.8302 9.6281 14.6649 9.64439 14.504 9.67404C14.1204 8.5972 13.093 7.86243 11.9339 7.86243C10.4296 7.86243 9.20573 9.08599 9.20573 10.59C9.20573 11.3472 9.51604 12.0331 10.0159 12.5279C8.81684 13.2109 8.04492 14.5043 8.04492 15.911C8.04492 16.1537 8.24168 16.3504 8.48438 16.3504C8.72707 16.3504 8.92383 16.1537 8.92383 15.911C8.92383 14.6686 9.70167 13.5404 10.861 13.098C11.1905 13.2395 11.5532 13.3181 11.9339 13.3181C12.1016 13.3181 12.2677 13.302 12.4302 13.272C12.5691 13.6605 12.7936 14.0085 13.081 14.2933C11.8711 14.9784 11.1107 16.2622 11.1107 17.6768C11.1107 17.9196 11.3074 18.1163 11.5501 18.1163C11.7928 18.1163 11.9896 17.9196 11.9896 17.6768C11.9896 16.4643 12.7112 15.3756 13.828 14.9032C13.8579 14.8906 13.8855 14.8748 13.911 14.8568C14.2446 15.0026 14.6127 15.0841 14.9995 15.0841C15.3804 15.0841 15.7431 15.0054 16.0726 14.8638C17.2314 15.3063 18.0094 16.4356 18.0094 17.6768C18.0094 17.9196 18.2062 18.1163 18.4489 18.1163C18.6916 18.1163 18.8883 17.9196 18.8883 17.6768C18.8883 16.2714 18.1163 14.977 16.9175 14.2937C17.2052 14.0089 17.4298 13.6607 17.5688 13.272C17.7314 13.302 17.8974 13.3181 18.0651 13.3181C18.4458 13.3181 18.8085 13.2395 19.138 13.098C20.2973 13.5404 21.0751 14.6685 21.0751 15.911C21.0751 16.1537 21.2719 16.3504 21.5146 16.3504C21.7573 16.3504 21.954 16.1537 21.954 15.911C21.9542 14.5042 21.1822 13.2109 19.9832 12.5279ZM12.2716 12.3561C12.2716 12.3734 12.2726 12.3904 12.2729 12.4076C12.1622 12.4282 12.0488 12.4392 11.9339 12.4392C10.9143 12.4392 10.0847 11.6097 10.0847 10.59C10.0847 9.57068 10.9143 8.74134 11.9339 8.74134C12.7206 8.74134 13.4175 9.2405 13.6768 9.9714C12.8395 10.4377 12.2716 11.3317 12.2716 12.3561ZM13.1505 12.3561C13.1505 11.3366 13.98 10.5071 14.9996 10.5071C16.0192 10.5071 16.8486 11.3365 16.8486 12.3561C16.8486 13.3757 16.0192 14.2052 14.9996 14.2052C13.98 14.2052 13.1505 13.3757 13.1505 12.3561ZM17.7262 12.4076C17.7265 12.3904 17.7275 12.3734 17.7275 12.3561C17.7275 11.3317 17.1596 10.4378 16.3223 9.97146C16.5816 9.24056 17.2785 8.7414 18.0652 8.7414C19.0848 8.7414 19.9144 9.57068 19.9144 10.59C19.9144 11.6097 19.0848 12.4393 18.0652 12.4393C17.9503 12.4392 17.8369 12.4282 17.7262 12.4076Z" fill="#69EDFE"/>
<path d="M26.3806 18.9925V11.0046C27.4761 10.7978 28.3074 9.83431 28.3074 8.67972C28.3074 7.37483 27.2459 6.31328 25.941 6.31328C25.2238 6.31328 24.5806 6.63437 24.1463 7.13981L17.233 3.14808C17.319 2.90322 17.3663 2.64025 17.3663 2.36632C17.3663 1.06155 16.3048 0 14.9999 0C13.6951 0 12.6335 1.06155 12.6335 2.36638C12.6335 2.64031 12.6808 2.90322 12.7668 3.14814L5.85344 7.13981C5.41914 6.63437 4.77596 6.31328 4.05882 6.31328C2.75393 6.31328 1.69238 7.37483 1.69238 8.67972C1.69238 9.83431 2.52372 10.7978 3.61913 11.0046V18.9925C2.52372 19.1992 1.69238 20.1628 1.69238 21.3174C1.69238 22.6222 2.75393 23.6838 4.05882 23.6838C4.77484 23.6838 5.41709 23.3637 5.85139 22.8597L12.7667 26.8521C12.6808 27.0969 12.6335 27.3598 12.6335 27.6336C12.6335 28.9385 13.695 30.0001 14.9999 30.0001C16.3048 30.0001 17.3664 28.9385 17.3664 27.6336C17.3664 27.3598 17.3191 27.0969 17.2331 26.8521L24.1484 22.8597C24.5827 23.3637 25.225 23.6838 25.941 23.6838C27.2459 23.6838 28.3075 22.6222 28.3075 21.3174C28.3074 20.1627 27.476 19.1992 26.3806 18.9925ZM25.941 7.19219C26.7612 7.19219 27.4285 7.85952 27.4285 8.67972C27.4285 9.49992 26.7612 10.1672 25.941 10.1672C25.1208 10.1672 24.4534 9.49992 24.4534 8.67972C24.4534 7.85952 25.1208 7.19219 25.941 7.19219ZM14.9999 0.878911C15.8201 0.878911 16.4874 1.54618 16.4874 2.36638C16.4874 3.18582 15.8214 3.85262 15.0022 3.85385C15.0014 3.85385 15.0007 3.85373 14.9999 3.85373C14.9992 3.85373 14.9984 3.85385 14.9976 3.85385C14.1785 3.85262 13.5124 3.18582 13.5124 2.36638C13.5124 1.54618 14.1797 0.878911 14.9999 0.878911ZM2.57129 8.67972C2.57129 7.85952 3.23862 7.19219 4.05882 7.19219C4.87902 7.19219 5.54635 7.85952 5.54635 8.67972C5.54635 9.49992 4.87902 10.1672 4.05882 10.1672C3.23862 10.1672 2.57129 9.49992 2.57129 8.67972ZM4.05882 22.8048C3.23862 22.8048 2.57129 22.1375 2.57129 21.3173C2.57129 20.4971 3.23862 19.8298 4.05882 19.8298C4.87902 19.8298 5.54635 20.4971 5.54635 21.3173C5.54635 22.1375 4.87902 22.8048 4.05882 22.8048ZM14.9999 29.1211C14.1797 29.1211 13.5124 28.4538 13.5124 27.6336C13.5124 26.8134 14.1797 26.146 14.9999 26.146C15.8201 26.146 16.4874 26.8134 16.4874 27.6336C16.4874 28.4538 15.8201 29.1211 14.9999 29.1211ZM16.7926 26.0915C16.4494 25.693 15.9763 25.41 15.4393 25.3087V23.6157C15.4393 23.3729 15.2426 23.1762 14.9999 23.1762C14.7572 23.1762 14.5604 23.3729 14.5604 23.6157V25.3087C14.0235 25.41 13.5504 25.693 13.2071 26.0915L6.2919 22.0991C6.37792 21.8542 6.4252 21.5913 6.4252 21.3174C6.4252 21.0432 6.3778 20.78 6.29167 20.5349L7.75828 19.6879C7.96845 19.5665 8.04041 19.2977 7.91906 19.0876C7.79771 18.8774 7.52894 18.8055 7.3187 18.9268L5.85081 19.7745C5.50762 19.3764 5.03465 19.0936 4.49798 18.9925V11.0046C5.03482 10.9034 5.50791 10.6205 5.8511 10.2222L7.32099 11.0711C7.39019 11.111 7.46578 11.13 7.54037 11.13C7.69218 11.13 7.8399 11.0512 7.92129 10.9103C8.04269 10.7001 7.97068 10.4313 7.7605 10.3099L6.29173 9.46171C6.37774 9.21673 6.42509 8.9537 6.42509 8.67972C6.42509 8.4069 6.37815 8.14499 6.29278 7.90094L13.2071 3.90864C13.5503 4.30696 14.0234 4.58997 14.5602 4.69122V6.38441C14.5602 6.62717 14.757 6.82387 14.9997 6.82387C15.2424 6.82387 15.4391 6.62717 15.4391 6.38441V4.69122C15.976 4.58997 16.4491 4.30696 16.7923 3.90864L23.7066 7.90094C23.6213 8.14499 23.5743 8.4069 23.5743 8.67972C23.5743 8.9537 23.6216 9.21673 23.7076 9.46171L22.2389 10.3099C22.0287 10.4313 21.9567 10.7001 22.0781 10.9103C22.1595 11.0512 22.3072 11.13 22.459 11.13C22.5335 11.13 22.6092 11.111 22.6784 11.0711L24.1483 10.2222C24.4915 10.6205 24.9646 10.9034 25.5014 11.0046V18.9925C24.9647 19.0936 24.4918 19.3764 24.1486 19.7745L22.6807 18.9268C22.4705 18.8056 22.2017 18.8774 22.0803 19.0876C21.9589 19.2977 22.0309 19.5665 22.2411 19.6879L23.7077 20.5349C23.6216 20.78 23.5742 21.0432 23.5742 21.3174C23.5742 21.5913 23.6215 21.8542 23.7075 22.0991L16.7926 26.0915ZM25.941 22.8048C25.1208 22.8048 24.4534 22.1375 24.4534 21.3173C24.4534 20.4971 25.1208 19.8298 25.941 19.8298C26.7612 19.8298 27.4285 20.4971 27.4285 21.3173C27.4285 22.1375 26.7612 22.8048 25.941 22.8048Z" fill="#69EDFE"/>
<path d="M18.6809 19.5405H17.373C17.1304 19.5405 16.9336 19.7372 16.9336 19.98C16.9336 20.2227 17.1304 20.4194 17.373 20.4194H18.6809C18.9236 20.4194 19.1203 20.2227 19.1203 19.98C19.1203 19.7372 18.9236 19.5405 18.6809 19.5405Z" fill="#69EDFE"/>
<path d="M18.6809 21.2617H11.3193C11.0766 21.2617 10.8799 21.4584 10.8799 21.7012C10.8799 21.9439 11.0766 22.1406 11.3193 22.1406H18.6809C18.9236 22.1406 19.1204 21.9439 19.1204 21.7012C19.1204 21.4584 18.9236 21.2617 18.6809 21.2617Z" fill="#69EDFE"/>
<path d="M11.3193 20.4194H11.3254C11.5681 20.4194 11.7649 20.2227 11.7649 19.98C11.7649 19.7372 11.5681 19.5405 11.3254 19.5405H11.3193C11.0766 19.5405 10.8799 19.7372 10.8799 19.98C10.8799 20.2227 11.0766 20.4194 11.3193 20.4194Z" fill="#69EDFE"/>
<path d="M12.8469 20.4194C13.0896 20.4194 13.2864 20.2227 13.2864 19.98C13.2864 19.7372 13.0896 19.5405 12.8469 19.5405H12.8408C12.5981 19.5405 12.4014 19.7372 12.4014 19.98C12.4014 20.2227 12.5981 20.4194 12.8408 20.4194H12.8469Z" fill="#69EDFE"/>
<path d="M14.3694 20.4194C14.6121 20.4194 14.8088 20.2227 14.8088 19.98C14.8088 19.7372 14.6121 19.5405 14.3694 19.5405H14.3633C14.1206 19.5405 13.9238 19.7372 13.9238 19.98C13.9238 20.2227 14.1206 20.4194 14.3633 20.4194H14.3694Z" fill="#69EDFE"/>
</g>
<defs>
<clipPath id="clip0_2179_953">
<rect width="30" height="30" fill="white"/>
</clipPath>
</defs>
</svg>
