<svg width="30" height="30" viewBox="0 0 30 30" fill="none" xmlns="http://www.w3.org/2000/svg">
<path d="M22.269 15.75C22.0968 17.4194 21.357 18.9792 20.1733 20.1689C18.9896 21.3587 17.4335 22.1063 15.765 22.287C15.7314 22.2866 15.6981 22.2929 15.6669 22.3056C15.6358 22.3182 15.6076 22.337 15.5838 22.3608C15.56 22.3845 15.5413 22.4128 15.5286 22.4439C15.5159 22.475 15.5096 22.5084 15.51 22.542V27.999C15.51 28.1342 15.4563 28.2639 15.3606 28.3596C15.265 28.4552 15.1353 28.509 15 28.509C14.8647 28.509 14.735 28.4552 14.6394 28.3596C14.5437 28.2639 14.49 28.1342 14.49 27.999V26.019C14.4851 25.9529 14.4567 25.8909 14.4099 25.8441C14.3631 25.7972 14.301 25.7688 14.235 25.764C11.9667 25.5804 9.81521 24.6819 8.09009 23.1977C6.36497 21.7136 5.15523 19.7204 4.635 17.505C4.61564 17.4393 4.60968 17.3705 4.61749 17.3025C4.62529 17.2345 4.6467 17.1688 4.68044 17.1092C4.71418 17.0497 4.75956 16.9975 4.81387 16.9559C4.86819 16.9143 4.93032 16.884 4.99658 16.8669C5.06284 16.8497 5.13187 16.8461 5.19955 16.8563C5.26724 16.8664 5.33219 16.89 5.39055 16.9258C5.44891 16.9615 5.49948 17.0086 5.53924 17.0643C5.579 17.12 5.60715 17.1832 5.622 17.25C6.0845 19.2386 7.16293 21.0304 8.70357 22.3701C10.2442 23.7098 12.1685 24.529 14.202 24.711C14.268 24.744 14.331 24.711 14.394 24.648C14.4273 24.6292 14.4542 24.6008 14.4713 24.5666C14.4884 24.5324 14.4949 24.4939 14.49 24.456V22.542C14.4904 22.5084 14.4841 22.475 14.4714 22.4439C14.4587 22.4128 14.44 22.3845 14.4162 22.3608C14.3925 22.337 14.3642 22.3182 14.3331 22.3056C14.3019 22.2929 14.2686 22.2866 14.235 22.287C12.5744 22.102 11.0248 21.3621 9.837 20.187C8.64941 18.9934 7.90802 17.428 7.737 15.753C7.72727 15.6917 7.69649 15.6357 7.64995 15.5946C7.60342 15.5536 7.54403 15.53 7.482 15.528H2.025C1.88576 15.528 1.75223 15.4727 1.65377 15.3742C1.55531 15.2757 1.5 15.1422 1.5 15.003C1.5 14.8637 1.55531 14.7302 1.65377 14.6317C1.75223 14.5333 1.88576 14.478 2.025 14.478H4.098C4.15986 14.4754 4.21895 14.4516 4.26537 14.4107C4.3118 14.3697 4.34274 14.314 4.353 14.253C4.48913 11.9881 5.33066 9.82258 6.75959 8.06009C8.18852 6.29759 10.1332 5.02648 12.321 4.42497C12.4535 4.39982 12.5906 4.42632 12.7042 4.49903C12.8177 4.57174 12.8992 4.68515 12.9318 4.816C12.9644 4.94685 12.9457 5.08522 12.8796 5.20273C12.8134 5.32024 12.7048 5.40799 12.576 5.44797C10.6187 5.97576 8.87506 7.10162 7.58856 8.66832C6.30207 10.235 5.53693 12.1644 5.4 14.187C5.39154 14.2242 5.39188 14.2629 5.40098 14.3001C5.41009 14.3372 5.42771 14.3716 5.45246 14.4008C5.4772 14.4299 5.50839 14.4528 5.54355 14.4678C5.5787 14.4827 5.61686 14.4893 5.655 14.487H7.47C7.53203 14.4849 7.59142 14.4614 7.63795 14.4203C7.68449 14.3793 7.71527 14.3233 7.725 14.262C7.89488 12.5895 8.63434 11.0261 9.8195 9.83388C11.0047 8.64161 12.5635 7.89283 14.235 7.71297C14.2686 7.71337 14.3019 7.70705 14.3331 7.69438C14.3642 7.6817 14.3925 7.66293 14.4162 7.63918C14.44 7.61542 14.4587 7.58714 14.4714 7.55603C14.4841 7.52491 14.4904 7.49157 14.49 7.45797V2.00097C14.49 1.86571 14.5437 1.73599 14.6394 1.64034C14.735 1.5447 14.8647 1.49097 15 1.49097C15.1353 1.49097 15.265 1.5447 15.3606 1.64034C15.4563 1.73599 15.51 1.86571 15.51 2.00097V8.18997C15.5134 8.26218 15.5017 8.33432 15.4756 8.40175C15.4496 8.46918 15.4097 8.53042 15.3586 8.58154C15.3074 8.63266 15.2462 8.67254 15.1788 8.69861C15.1114 8.72469 15.0392 8.73639 14.967 8.73297C9.42 8.73297 6.648 15.525 10.569 19.449C14.49 23.373 21.183 20.565 21.279 15C21.2782 14.9328 21.2908 14.8661 21.3162 14.8038C21.3415 14.7416 21.3791 14.6851 21.4266 14.6375C21.4741 14.59 21.5306 14.5525 21.5929 14.5271C21.6551 14.5018 21.7218 14.4892 21.789 14.49H27.975C28.1142 14.49 28.2478 14.5453 28.3462 14.6437C28.4447 14.7422 28.5 14.8757 28.5 15.015C28.5 15.1542 28.4447 15.2877 28.3462 15.3862C28.2478 15.4847 28.1142 15.54 27.975 15.54H25.935C25.8717 15.5374 25.8099 15.5594 25.7624 15.6013C25.7149 15.6432 25.6854 15.7018 25.68 15.765C25.5144 18.044 24.6331 20.2124 23.1617 21.9607C21.6904 23.709 19.7043 24.9477 17.487 25.5C16.818 25.659 16.587 24.639 17.262 24.48C19.2421 23.9876 21.0179 22.8865 22.3392 21.3316C23.6605 19.7768 24.4606 17.8466 24.627 15.813C24.6355 15.7757 24.6351 15.737 24.626 15.6999C24.6169 15.6628 24.5993 15.6283 24.5745 15.5992C24.5498 15.5701 24.5186 15.5471 24.4835 15.5322C24.4483 15.5172 24.4101 15.5106 24.372 15.513H22.524C22.462 15.515 22.4026 15.5386 22.356 15.5796C22.3095 15.6207 22.2787 15.6767 22.269 15.738V15.75ZM26.4 7.26597L22.713 10.932C22.6229 11.0298 22.4978 11.088 22.365 11.094H19.908C19.8409 11.0998 19.7762 11.1214 19.719 11.157L15.351 15.558C15.2528 15.6497 15.1228 15.6998 14.9884 15.6977C14.854 15.6955 14.7257 15.6413 14.6304 15.5465C14.5352 15.4516 14.4805 15.3235 14.4778 15.1891C14.4751 15.0547 14.5246 14.9246 14.616 14.826L18.984 10.422C19.0134 10.4072 19.038 10.3845 19.055 10.3563C19.072 10.3282 19.0807 10.2958 19.08 10.263V7.79997C19.0794 7.72901 19.0931 7.65867 19.1205 7.59318C19.1478 7.5277 19.1881 7.46843 19.239 7.41897L22.905 3.75597C22.9758 3.67944 23.068 3.626 23.1696 3.60261C23.2712 3.57923 23.3775 3.58698 23.4746 3.62486C23.5717 3.66273 23.6552 3.72899 23.7141 3.81498C23.773 3.90097 23.8047 4.00272 23.805 4.10697V6.11697C23.8092 6.18321 23.8375 6.24563 23.8844 6.29256C23.9313 6.3395 23.9938 6.36773 24.06 6.37197H26.037C26.1425 6.3692 26.2463 6.39827 26.335 6.45537C26.4237 6.51248 26.4931 6.59498 26.5342 6.69212C26.5753 6.78926 26.5863 6.89654 26.5655 6.99996C26.5448 7.10339 26.4934 7.19818 26.418 7.27197L26.4 7.26597ZM22.2 9.96597L24.336 7.82997C24.3731 7.79568 24.3993 7.75125 24.4114 7.70219C24.4235 7.65313 24.4209 7.6016 24.404 7.554C24.3871 7.5064 24.3565 7.46481 24.3162 7.43441C24.2758 7.404 24.2274 7.38612 24.177 7.38297H23.277C23.1377 7.38622 23.0026 7.33457 22.9011 7.23916C22.7995 7.14375 22.7395 7.01223 22.734 6.87297V5.99997C22.7337 5.9483 22.7183 5.89784 22.6897 5.85485C22.661 5.81185 22.6204 5.77821 22.5728 5.75809C22.5252 5.73797 22.4728 5.73225 22.422 5.74165C22.3712 5.75105 22.3242 5.77515 22.287 5.81097L20.187 7.94697C20.1309 7.99581 20.0964 8.06481 20.091 8.13897V9.79797C20.0906 9.83156 20.0969 9.86491 20.1096 9.89602C20.1223 9.92715 20.141 9.95542 20.1648 9.97918C20.1886 10.0029 20.2168 10.0217 20.2479 10.0344C20.2791 10.047 20.3124 10.0534 20.346 10.053H22.035C22.101 10.053 22.164 10.053 22.194 9.98697L22.2 9.96597ZM19.332 15.006C19.3332 15.8637 19.0799 16.7026 18.6041 17.4163C18.1284 18.13 17.4516 18.6866 16.6594 19.0155C15.8672 19.3445 14.9952 19.431 14.1539 19.2642C13.3125 19.0973 12.5395 18.6847 11.9328 18.0783C11.326 17.472 10.9128 16.6993 10.7454 15.8581C10.578 15.0168 10.6639 14.1448 10.9923 13.3523C11.3207 12.5599 11.8768 11.8827 12.5902 11.4065C13.3036 10.9303 14.1422 10.6764 15 10.677C15.1289 10.6868 15.2493 10.745 15.3371 10.8399C15.425 10.9347 15.4738 11.0592 15.4738 11.1885C15.4738 11.3177 15.425 11.4422 15.3371 11.5371C15.2493 11.6319 15.1289 11.6901 15 11.7C14.1248 11.7 13.2854 12.0476 12.6665 12.6665C12.0477 13.2854 11.7 14.1248 11.7 15C11.7 15.8752 12.0477 16.7145 12.6665 17.3334C13.2854 17.9523 14.1248 18.3 15 18.3C16.914 18.3 18.189 16.866 18.282 15C18.279 14.9276 18.2909 14.8554 18.3171 14.7878C18.3432 14.7202 18.3829 14.6588 18.4338 14.6072C18.4847 14.5556 18.5457 14.5151 18.6129 14.4881C18.6801 14.4612 18.7522 14.4483 18.8246 14.4504C18.897 14.4524 18.9682 14.4694 19.0338 14.5001C19.0994 14.5309 19.1579 14.5748 19.2058 14.6292C19.2537 14.6836 19.2899 14.7472 19.3121 14.8161C19.3343 14.8851 19.3421 14.9579 19.335 15.03L19.332 15.006Z" fill="#69EDFE"/>
</svg>
