<svg width="30" height="30" viewBox="0 0 30 30" fill="none" xmlns="http://www.w3.org/2000/svg">
<path d="M20.3131 7.65474C19.4767 6.90065 18.4889 6.33395 17.4158 5.99258C16.3426 5.65121 15.2089 5.54305 14.0906 5.67535C12.4027 5.86813 10.8206 6.59565 9.57557 7.7516C8.33053 8.90756 7.48778 10.4314 7.17044 12.1004C6.85311 13.7694 7.07782 15.4962 7.81175 17.0284C8.54567 18.5606 9.75035 19.818 11.2498 20.6168V25.3126C11.25 25.5611 11.3489 25.7994 11.5246 25.9752C11.7004 26.151 11.9387 26.2498 12.1873 26.2501H13.1248V27.1876C13.125 27.4361 13.2239 27.6744 13.3996 27.8502C13.5754 28.026 13.8137 28.1248 14.0623 28.1251H15.9373C16.1858 28.1248 16.4241 28.026 16.5999 27.8502C16.7757 27.6744 16.8745 27.4361 16.8748 27.1876V26.2501H17.8123C18.0608 26.2498 18.2991 26.151 18.4749 25.9752C18.6507 25.7994 18.7495 25.5611 18.7498 25.3126V20.617C19.8811 20.0145 20.8503 19.1476 21.5748 18.0902C22.2993 17.0328 22.7578 15.8161 22.9113 14.5435C23.0648 13.2709 22.9087 11.9801 22.4563 10.7807C22.004 9.58139 21.2687 8.509 20.3131 7.65474ZM17.8123 22.5001V23.4376H12.1873V22.5001H17.8123ZM15.938 27.1876H14.0623V26.2501H15.9375L15.938 27.1876ZM16.406 25.3126H12.1873V24.3751H17.8123V25.3126H16.406ZM18.0755 19.9089C17.9965 19.9473 17.93 20.0072 17.8834 20.0817C17.8369 20.1562 17.8122 20.2422 17.8123 20.33V21.5626H15.4685V19.4129L16.7374 18.144C16.8228 18.0556 16.8701 17.9371 16.869 17.8142C16.8679 17.6913 16.8186 17.5738 16.7317 17.4869C16.6448 17.3999 16.5272 17.3506 16.4043 17.3496C16.2814 17.3485 16.163 17.3958 16.0746 17.4811L14.9998 18.5559L13.9249 17.4811C13.8365 17.3958 13.7181 17.3485 13.5952 17.3496C13.4723 17.3506 13.3547 17.3999 13.2678 17.4869C13.1809 17.5738 13.1316 17.6913 13.1305 17.8142C13.1295 17.9371 13.1767 18.0556 13.2621 18.144L14.531 19.4129V21.5626H12.1873V20.33C12.1873 20.2422 12.1626 20.1562 12.1161 20.0817C12.0696 20.0072 12.003 19.9473 11.9241 19.9089C10.5557 19.2443 9.43998 18.1537 8.74452 16.8007C8.04906 15.4478 7.81143 13.9058 8.06734 12.4062C8.32325 10.9067 9.05888 9.53076 10.1637 8.48509C11.2685 7.43942 12.6828 6.78052 14.1941 6.60741C14.4648 6.57717 14.737 6.56196 15.0094 6.56185C16.7373 6.55669 18.4052 7.19531 19.6877 8.35318C20.5475 9.12161 21.2049 10.0899 21.6018 11.1725C21.9987 12.2552 22.123 13.4189 21.9636 14.561C21.8043 15.703 21.3662 16.7883 20.6881 17.721C20.01 18.6536 19.1127 19.4051 18.0755 19.9089Z" fill="#69EDFE"/>
<path d="M15 4.6875C15.1243 4.6875 15.2435 4.63811 15.3315 4.55021C15.4194 4.4623 15.4688 4.34307 15.4688 4.21875V2.34375C15.4688 2.21943 15.4194 2.1002 15.3315 2.01229C15.2435 1.92439 15.1243 1.875 15 1.875C14.8757 1.875 14.7565 1.92439 14.6685 2.01229C14.5806 2.1002 14.5312 2.21943 14.5312 2.34375V4.21875C14.5312 4.34307 14.5806 4.4623 14.6685 4.55021C14.7565 4.63811 14.8757 4.6875 15 4.6875Z" fill="#69EDFE"/>
<path d="M8.03932 7.29601C8.08256 7.34078 8.13429 7.37649 8.19148 7.40105C8.24867 7.42562 8.31017 7.43855 8.37242 7.43909C8.43466 7.43963 8.49638 7.42777 8.55399 7.4042C8.6116 7.38064 8.66393 7.34583 8.70795 7.30182C8.75196 7.2578 8.78676 7.20547 8.81033 7.14786C8.8339 7.09025 8.84576 7.02853 8.84522 6.96629C8.84468 6.90405 8.83175 6.84254 8.80718 6.78535C8.78262 6.72816 8.7469 6.67644 8.70213 6.63319L7.37623 5.30729C7.33299 5.26252 7.28126 5.22681 7.22407 5.20224C7.16689 5.17767 7.10538 5.16474 7.04314 5.1642C6.9809 5.16366 6.91917 5.17552 6.86156 5.19909C6.80395 5.22266 6.75162 5.25747 6.70761 5.30148C6.66359 5.34549 6.62879 5.39783 6.60522 5.45543C6.58165 5.51304 6.56979 5.57477 6.57033 5.63701C6.57087 5.69925 6.5838 5.76076 6.60837 5.81795C6.63294 5.87514 6.66865 5.92686 6.71342 5.9701L8.03932 7.29601Z" fill="#69EDFE"/>
<path d="M5.625 13.125H3.75C3.62568 13.125 3.50645 13.1744 3.41854 13.2623C3.33064 13.3502 3.28125 13.4694 3.28125 13.5938C3.28125 13.7181 3.33064 13.8373 3.41854 13.9252C3.50645 14.0131 3.62568 14.0625 3.75 14.0625H5.625C5.74932 14.0625 5.86855 14.0131 5.95646 13.9252C6.04436 13.8373 6.09375 13.7181 6.09375 13.5938C6.09375 13.4694 6.04436 13.3502 5.95646 13.2623C5.86855 13.1744 5.74932 13.125 5.625 13.125Z" fill="#69EDFE"/>
<path d="M8.03932 19.8915L6.71342 21.2174C6.66865 21.2606 6.63294 21.3123 6.60837 21.3695C6.5838 21.4267 6.57087 21.4882 6.57033 21.5505C6.56979 21.6127 6.58165 21.6744 6.60522 21.732C6.62879 21.7897 6.66359 21.842 6.70761 21.886C6.75162 21.93 6.80395 21.9648 6.86156 21.9884C6.91917 22.012 6.9809 22.0238 7.04314 22.0233C7.10538 22.0227 7.16689 22.0098 7.22407 21.9852C7.28126 21.9607 7.33299 21.925 7.37623 21.8802L8.70213 20.5543C8.78752 20.4659 8.83477 20.3475 8.8337 20.2246C8.83263 20.1017 8.78334 19.9841 8.69643 19.8972C8.60952 19.8103 8.49195 19.761 8.36904 19.7599C8.24614 19.7588 8.12773 19.8061 8.03932 19.8915Z" fill="#69EDFE"/>
<path d="M22.6233 5.30729L21.2974 6.63319C21.2526 6.67644 21.2169 6.72816 21.1924 6.78535C21.1678 6.84254 21.1549 6.90405 21.1543 6.96629C21.1538 7.02853 21.1656 7.09025 21.1892 7.14786C21.2128 7.20547 21.2476 7.2578 21.2916 7.30182C21.3356 7.34583 21.3879 7.38064 21.4455 7.4042C21.5032 7.42777 21.5649 7.43963 21.6271 7.43909C21.6894 7.43855 21.7509 7.42562 21.8081 7.40105C21.8652 7.37649 21.917 7.34078 21.9602 7.29601L23.2861 5.9701C23.3309 5.92686 23.3666 5.87514 23.3912 5.81795C23.4157 5.76076 23.4287 5.69925 23.4292 5.63701C23.4297 5.57477 23.4179 5.51304 23.3943 5.45543C23.3707 5.39783 23.3359 5.34549 23.2919 5.30148C23.2479 5.25747 23.1956 5.22266 23.138 5.19909C23.0804 5.17552 23.0186 5.16366 22.9564 5.1642C22.8942 5.16474 22.8327 5.17767 22.7755 5.20224C22.7183 5.22681 22.6665 5.26252 22.6233 5.30729Z" fill="#69EDFE"/>
<path d="M21.9604 19.8915C21.872 19.8061 21.7536 19.7588 21.6307 19.7599C21.5078 19.761 21.3902 19.8103 21.3033 19.8972C21.2164 19.9841 21.1671 20.1017 21.166 20.2246C21.165 20.3475 21.2122 20.4659 21.2976 20.5543L22.6235 21.8802C22.7119 21.9656 22.8303 22.0128 22.9532 22.0118C23.0761 22.0107 23.1937 21.9614 23.2806 21.8745C23.3675 21.7876 23.4168 21.67 23.4179 21.5471C23.419 21.4242 23.3717 21.3058 23.2863 21.2174L21.9604 19.8915Z" fill="#69EDFE"/>
<path d="M26.25 13.125H24.375C24.2507 13.125 24.1315 13.1744 24.0435 13.2623C23.9556 13.3502 23.9062 13.4694 23.9062 13.5938C23.9062 13.7181 23.9556 13.8373 24.0435 13.9252C24.1315 14.0131 24.2507 14.0625 24.375 14.0625H26.25C26.3743 14.0625 26.4935 14.0131 26.5815 13.9252C26.6694 13.8373 26.7188 13.7181 26.7188 13.5938C26.7188 13.4694 26.6694 13.3502 26.5815 13.2623C26.4935 13.1744 26.3743 13.125 26.25 13.125Z" fill="#69EDFE"/>
</svg>
