<svg width="30" height="30" viewBox="0 0 30 30" fill="none" xmlns="http://www.w3.org/2000/svg">
<g clip-path="url(#clip0_2179_967)">
<path d="M14.8266 23.8326C14.6666 23.8326 14.5066 23.7713 14.3841 23.6501L6.35037 15.6163C6.11537 15.3813 6.10537 15.0051 6.32537 14.7576L12.3466 8.01256C16.5554 3.08881 23.4091 -0.0974407 29.3854 0.00380929C29.7191 0.0113093 29.9879 0.280059 29.9954 0.613809C30.1341 6.59381 26.9116 13.4438 21.9754 17.6613L15.2416 23.6738C15.1241 23.7801 14.9741 23.8326 14.8266 23.8326ZM7.65162 15.1501L14.8504 22.3488L21.1541 16.7213C25.6616 12.8688 28.6554 6.72881 28.7479 1.25256C23.2716 1.34381 17.1329 4.33756 13.2879 8.83506L7.65162 15.1501Z" fill="#69EDFE"/>
<path d="M17.2204 28.4075C17.1604 28.4075 17.0992 28.3988 17.0417 28.38C16.8167 28.305 16.6317 28.1325 16.5992 27.8975L15.7417 21.9138C15.6929 21.5725 15.9304 21.2563 16.2717 21.2063C16.6129 21.1525 16.9292 21.3938 16.9792 21.7363L17.6492 26.4113C19.8392 23.7925 21.0567 20.4725 21.0567 17.0875C21.0567 16.7425 21.3367 16.4625 21.6817 16.4625C22.0267 16.4625 22.3067 16.7425 22.3067 17.0875C22.3067 21.2288 20.6292 25.2825 17.7042 28.2063C17.5792 28.3313 17.3967 28.4075 17.2204 28.4075Z" fill="#69EDFE"/>
<path d="M8.17593 14.265C8.14718 14.265 8.11718 14.2637 8.08718 14.2587L2.10343 13.4012C1.86843 13.3675 1.67218 13.2037 1.59843 12.9775C1.52468 12.7525 1.58468 12.5037 1.75343 12.3375C4.71968 9.37123 8.77218 7.69373 12.9134 7.69373C13.2584 7.69373 13.5384 7.97373 13.5384 8.31873C13.5384 8.66373 13.2584 8.94373 12.9134 8.94373C9.51218 8.94373 6.17468 10.1725 3.58343 12.35L8.26468 13.0212C8.60593 13.0712 8.84343 13.3862 8.79468 13.7287C8.74843 14.04 8.48093 14.265 8.17593 14.265Z" fill="#69EDFE"/>
<path d="M21.4161 11.7075C20.6148 11.7075 19.8148 11.4025 19.2061 10.7938C17.9886 9.57503 17.9886 7.59253 19.2061 6.37378C20.4248 5.15503 22.4073 5.15503 23.6261 6.37378C24.8436 7.59253 24.8436 9.57503 23.6261 10.7938C23.0161 11.4038 22.2161 11.7075 21.4161 11.7075ZM21.4161 6.71003C20.9361 6.71003 20.4548 6.89253 20.0898 7.25753C19.3598 7.98878 19.3598 9.17878 20.0898 9.91003C20.8211 10.64 22.0111 10.6388 22.7423 9.91003C23.4723 9.17878 23.4723 7.98878 22.7423 7.25753C22.3761 6.89378 21.8961 6.71003 21.4161 6.71003Z" fill="#69EDFE"/>
<path d="M0.625269 30C0.461519 30 0.302769 29.9362 0.182769 29.8175C0.0202693 29.655 -0.0397307 29.4162 0.0265193 29.1962C0.231519 28.5125 2.06777 22.47 3.40527 21.1325C4.91152 19.6262 7.36277 19.625 8.86902 21.1325C10.3753 22.6387 10.3753 25.09 8.86902 26.5962C7.53152 27.9337 1.48902 29.77 0.805269 29.975C0.745269 29.9912 0.685269 30 0.625269 30ZM6.13777 21.2512C5.46777 21.2512 4.79902 21.5062 4.28902 22.015C3.56777 22.7375 2.36777 25.9637 1.57527 28.425C4.03527 27.6325 7.26277 26.4325 7.98402 25.7112C9.00277 24.6925 9.00277 23.0337 7.98402 22.015C7.47527 21.5062 6.80652 21.2512 6.13777 21.2512Z" fill="#69EDFE"/>
</g>
<defs>
<clipPath id="clip0_2179_967">
<rect width="30" height="30" fill="white"/>
</clipPath>
</defs>
</svg>
