<svg width="44" height="44" viewBox="0 0 44 44" fill="none" xmlns="http://www.w3.org/2000/svg">
<g clip-path="url(#clip0_2179_365)">
<path d="M38.6138 8.15374C37.8149 8.7969 36.948 9.36203 36.0315 9.82987C36.7135 11.8955 37.1326 14.3216 37.201 16.9235H42.6089C42.4335 13.562 41.0008 10.5411 38.7698 8.30946C38.7214 8.26065 38.6629 8.20221 38.6138 8.15374ZM42.6092 18.2975H37.2013C37.1429 20.8017 36.7434 23.1402 36.1003 25.157C36.0807 25.2354 36.0511 25.3131 36.0223 25.3911C36.948 25.8586 37.8149 26.4241 38.6138 27.0672C39.4323 26.2776 40.1534 25.3715 40.7382 24.397C41.8299 22.5943 42.4923 20.5188 42.6092 18.2975ZM37.5619 27.9826C36.9287 27.4859 36.256 27.0572 35.5451 26.6771C34.8631 28.2944 33.9955 29.6295 33.0113 30.5649C32.7388 30.8282 32.3098 30.8182 32.0464 30.5453C31.7831 30.2723 31.7934 29.8341 32.066 29.5711C32.9333 28.7523 33.6841 27.5732 34.2977 26.1119C34.2392 26.0923 34.1808 26.0731 34.1223 26.0439C32.8842 25.5764 31.5497 25.2935 30.1565 25.2254V25.4103C30.1565 25.7902 29.8543 26.1023 29.4745 26.1023C29.0947 26.1023 28.7822 25.7905 28.7822 25.4103V24.5142V18.2975H25.5568C25.1769 18.2975 24.8748 17.9857 24.8748 17.6055C24.8748 17.2253 25.1769 16.9235 25.5568 16.9235H28.7822V11.3792C27.7008 11.3207 26.6386 11.155 25.6252 10.8721C25.1285 10.736 24.651 10.5799 24.1832 10.3947C23.5012 12.4702 23.1117 14.9452 23.1117 17.6055C23.1117 17.9853 22.7996 18.2975 22.4194 18.2975C22.0492 18.2975 21.7374 17.9857 21.7374 17.6055C21.7374 14.7407 22.1757 12.0708 22.9161 9.82987C22.6239 9.67381 22.3413 9.51809 22.0588 9.35206C21.7278 9.15749 21.6205 8.73846 21.8154 8.41671C22.0103 8.08534 22.4297 7.97809 22.7511 8.17299C22.9653 8.29949 23.1794 8.42634 23.4035 8.53359C23.55 8.18262 23.7057 7.84162 23.881 7.51024C24.3585 6.55565 24.9236 5.72687 25.5372 5.05449C24.3973 5.41509 23.3255 5.92178 22.3413 6.55531C22.0196 6.75984 21.6009 6.66256 21.396 6.35043C21.1915 6.02868 21.2792 5.60003 21.6006 5.39549C22.7508 4.65506 24.0168 4.07068 25.3615 3.6709C26.6674 3.29106 28.051 3.08618 29.4738 3.08618C33.4881 3.08618 37.113 4.70353 39.744 7.33459C42.3744 9.96531 44.0021 13.6001 44.0021 17.6048C44.0021 20.3524 43.242 22.9151 41.9169 25.0979C40.5525 27.3584 38.5942 29.2198 36.2464 30.4573C35.9054 30.6422 35.4956 30.5061 35.3207 30.1747C35.1457 29.8433 35.2715 29.4243 35.6032 29.2493C36.1976 28.9379 37.6888 27.9342 37.5619 27.9826ZM33.4104 5.05484C34.0247 5.72721 34.5799 6.55565 35.0666 7.51059C35.2323 7.84196 35.3884 8.18296 35.5448 8.53393C36.2557 8.16371 36.9284 7.72509 37.5616 7.23765C36.3337 6.28271 34.9305 5.53265 33.4104 5.05484ZM34.7655 24.8256L34.7944 24.7476C35.3987 22.8669 35.7686 20.6649 35.8277 18.2971H30.1565V23.8415C31.7154 23.9195 33.2159 24.2409 34.6091 24.7668C34.6675 24.7864 34.7163 24.806 34.7655 24.8256ZM35.8277 16.9232C35.7686 14.5162 35.3887 12.2946 34.7655 10.3947C34.7163 10.4142 34.6579 10.4335 34.6091 10.4531C33.2159 10.9794 31.7154 11.3011 30.1565 11.3788V16.9232H35.8277ZM30.1565 4.53853V9.99521C31.5497 9.92715 32.8845 9.63462 34.1223 9.16712C34.1808 9.14752 34.2392 9.12828 34.2874 9.10868C34.1512 8.76768 34.0048 8.44593 33.8491 8.13415C32.8453 6.17546 31.5597 4.8699 30.1565 4.53853ZM28.7822 9.99521V4.53853C27.379 4.8699 26.0934 6.17546 25.0989 8.13415C24.9432 8.44593 24.7968 8.76768 24.651 9.10868C25.0893 9.27403 25.5279 9.43009 25.9858 9.54696C26.8819 9.80031 27.8173 9.94674 28.7822 9.99521Z" fill="#69EDFE"/>
<path d="M8.48511 19.7492L9.86871 24.1045L12.519 22.1754L9.54696 18.8331L8.48511 19.7492ZM10.1413 17.4299L13.5321 21.2497L16.9132 17.4299L16.9228 17.4203C17.1662 17.1281 17.6048 17.0986 17.8874 17.3522L19.7292 18.9407L24.1433 20.8698C25.059 21.2693 25.7802 21.9028 26.2769 22.6821C26.784 23.481 27.0565 24.4163 27.0565 25.4104V27.9146C27.0565 28.2945 26.7451 28.6066 26.3649 28.6066C25.9944 28.6066 25.6829 28.2948 25.6829 27.9146V25.4104C25.6829 24.67 25.4884 23.9876 25.1278 23.4229C24.7672 22.8674 24.2509 22.4191 23.5977 22.1266L19.7783 20.4604L18.1998 25.4297C18.0634 25.8779 17.5178 26.0436 17.1473 25.7707L14.2144 23.6367V28.4306C14.2144 28.8105 13.9126 29.1226 13.5324 29.1226C13.1525 29.1226 12.8408 28.8108 12.8408 28.4306V23.637L9.91752 25.771C9.91752 25.771 9.73224 25.8683 9.71299 25.8683C9.35239 25.9855 8.97221 25.7903 8.85533 25.43L7.27683 20.4608L3.45708 22.1269C2.8043 22.4195 2.28799 22.8674 1.93702 23.4232C1.5668 23.9883 1.37189 24.6703 1.37189 25.4108V36.7528C1.37189 37.1326 1.06974 37.4448 0.689894 37.4448C0.31005 37.4448 -0.0020752 37.133 -0.0020752 36.7528V25.4104C-0.0020752 24.4163 0.270862 23.4813 0.77755 22.6821C1.27461 21.9025 2.00542 21.2693 2.91155 20.8698L7.3253 18.9407L9.16677 17.3522C9.44933 17.0989 9.88796 17.1285 10.1317 17.4203L10.1413 17.4299ZM5.30817 30.7014C5.30817 30.3216 5.61996 30.0194 5.99018 30.0194C6.37002 30.0194 6.68214 30.3216 6.68214 30.7014V36.7525C6.68214 37.1323 6.37036 37.4444 5.99018 37.4444C5.61996 37.4444 5.30817 37.1326 5.30817 36.7525V30.7014ZM17.5079 18.8331L14.5358 22.1754L17.1861 24.1045L18.5697 19.7492L17.5079 18.8331Z" fill="#69EDFE"/>
<path d="M28.6454 29.5812H13.4059C12.8212 29.5812 12.256 30.0879 12.1588 30.6527L10.2293 41.6249C10.132 42.18 10.4634 42.6283 11.0478 42.6283H25.9462C26.6282 42.6283 27.281 42.0439 27.3979 41.3811L29.3181 30.419C29.3274 30.3701 29.3377 30.3117 29.3377 30.2533C29.3377 29.8439 29.0448 29.5812 28.6454 29.5812ZM20.5872 35.3786C20.967 35.3786 21.2791 35.6904 21.2791 36.0706C21.2791 36.4507 20.9674 36.7526 20.5872 36.7526C20.207 36.7526 19.9052 36.4504 19.9052 36.0706C19.9052 35.6907 20.207 35.3786 20.5872 35.3786ZM13.4059 28.2073H28.6454C28.7722 28.2073 28.8984 28.2169 29.0252 28.2461C30.0289 28.4214 30.711 29.2499 30.711 30.2533C30.711 30.3897 30.6914 30.5166 30.6721 30.6527L28.7526 41.6249C28.5182 42.9304 27.281 44.0022 25.9462 44.0022H11.0478C9.80064 44.0022 8.8457 43.0573 8.8457 41.8098C8.8457 41.6737 8.85533 41.5369 8.87492 41.3811L10.804 30.419C11.0185 29.2011 12.168 28.2073 13.4059 28.2073Z" fill="#69EDFE"/>
<path d="M9.8395 39.1982C10.2193 39.1982 10.5315 39.5004 10.5315 39.8802C10.5315 39.9291 10.5218 39.9775 10.5119 40.0263L10.2293 41.6244C10.2197 41.6829 10.2197 41.7509 10.2197 41.8094C10.2197 42.0239 10.2781 42.2088 10.395 42.3456C10.5022 42.4817 10.6679 42.5694 10.8725 42.6086C10.9213 42.6182 10.9797 42.6182 11.0382 42.6282L11.0478 44.0021H4.60659C4.15834 44.0021 3.70047 43.8756 3.33025 43.6319C2.96003 43.3882 2.67747 43.0376 2.56059 42.5697L1.93703 40.0459C1.84938 39.6757 2.0735 39.3055 2.44372 39.2178C2.49253 39.1982 2.55097 39.1982 2.60906 39.1982H9.8395ZM9.02103 40.5722H3.47634L3.89538 42.248C3.91497 42.3456 3.98303 42.4236 4.08066 42.4821C4.22675 42.5794 4.41169 42.6282 4.60659 42.6282H8.99147C8.89384 42.3752 8.84537 42.1022 8.84537 41.8097C8.84537 41.6736 8.855 41.5368 8.87459 41.3811L9.02103 40.5722Z" fill="#69EDFE"/>
<path d="M10.5315 16.1828L10.2977 17.9562C10.2393 18.3361 9.89827 18.5994 9.52771 18.5506C9.14786 18.4921 8.88455 18.1511 8.93336 17.771L9.29396 15.1402L9.11864 14.9845C8.46586 14.4094 7.9688 13.7175 7.63742 12.9382C7.29642 12.1585 7.13074 11.3012 7.13074 10.3851V6.22439C7.13074 4.36333 7.77389 2.8137 8.90414 1.71267C10.0248 0.621266 11.6229 -0.00195312 13.5324 -0.00195312C15.4326 -0.00195312 17.0307 0.621266 18.1514 1.71267C19.2816 2.8137 19.9248 4.36333 19.9248 6.22439V10.3851C19.9248 11.262 19.7687 12.1293 19.4181 12.9382C19.0867 13.7178 18.5896 14.4094 17.9369 14.9845L17.7615 15.1402L18.1221 17.771C18.171 18.1508 17.9076 18.4921 17.5374 18.5506C17.1576 18.5997 16.8166 18.3364 16.7678 17.9562L16.5244 16.1828C16.2126 16.3973 15.9008 16.5627 15.5695 16.6895C14.4292 17.1381 12.6266 17.1381 11.4867 16.6895C11.155 16.563 10.8432 16.3973 10.5315 16.1828ZM8.5243 5.77614C9.23552 6.01023 10.7655 6.22473 11.5548 4.2853C11.7009 3.93433 12.1003 3.76898 12.4513 3.91508C12.6462 3.99311 12.7531 4.12958 12.8311 4.31452C12.8408 4.32414 14.0882 7.90052 18.5508 6.77989V6.22473C18.5508 4.75348 18.0637 3.53523 17.1964 2.69717C16.3291 1.84948 15.0624 1.37167 13.5327 1.37167C11.9931 1.37167 10.7264 1.84948 9.85908 2.69683C9.08942 3.44723 8.61196 4.4998 8.5243 5.77614ZM18.5508 8.1927C14.9748 8.97233 13.0649 7.2278 12.178 5.96142C11.0574 7.47186 9.50811 7.43267 8.50436 7.18895V10.3851C8.50436 11.116 8.64083 11.798 8.89417 12.3926C9.14752 12.987 9.52736 13.5229 10.034 13.9612L10.8625 14.7016C11.2231 15.0234 11.5933 15.2568 11.9927 15.4128C12.7916 15.7346 14.2632 15.7346 15.0621 15.4128C15.4615 15.2568 15.8317 15.023 16.202 14.7016L17.0304 13.9612C17.5271 13.5229 17.8781 13.0451 18.1314 12.4507C18.4236 11.8172 18.5505 11.0768 18.5505 10.3848L18.5508 8.1927Z" fill="#69EDFE"/>
</g>
<defs>
<clipPath id="clip0_2179_365">
<rect width="44" height="44" fill="white"/>
</clipPath>
</defs>
</svg>
