<svg width="44" height="44" viewBox="0 0 44 44" fill="none" xmlns="http://www.w3.org/2000/svg">
<path d="M26.2196 36.432C25.7779 36.4315 25.3434 36.32 24.956 36.1077L18.0246 32.3048C17.9532 32.2688 17.8896 32.2189 17.8379 32.1578C17.7861 32.0968 17.7472 32.026 17.7234 31.9495C17.6996 31.8731 17.6914 31.7927 17.6993 31.7131C17.7073 31.6335 17.7312 31.5563 17.7696 31.4861C17.808 31.4159 17.8601 31.3541 17.9229 31.3045C17.9857 31.2549 18.0578 31.2184 18.135 31.1972C18.2122 31.1761 18.2928 31.1707 18.3721 31.1814C18.4515 31.192 18.5278 31.2186 18.5966 31.2594L25.528 35.0623C25.8223 35.2239 26.1641 35.2773 26.4937 35.2129C26.8233 35.1486 27.1199 34.9707 27.332 34.7103C27.3425 34.6971 27.3535 34.6848 27.3654 34.6724C27.4728 34.5614 27.6191 34.4963 27.7735 34.491C27.9279 34.4856 28.0784 34.5405 28.1932 34.6439C28.308 34.7473 28.3781 34.8913 28.3888 35.0454C28.3996 35.1996 28.35 35.3518 28.2507 35.4702C28.0048 35.7713 27.695 36.0139 27.3437 36.1802C26.9923 36.3466 26.6084 36.4326 26.2196 36.432Z" fill="#69EDFE"/>
<path d="M23.8313 40.6049C22.4439 40.6045 21.0841 40.2175 19.9043 39.4873L13.6163 35.6096L10.4883 37.5016C10.3533 37.5778 10.1938 37.5984 10.0438 37.559C9.89383 37.5196 9.76509 37.4233 9.68494 37.2905C9.60478 37.1578 9.57952 36.999 9.61451 36.8479C9.64949 36.6968 9.74198 36.5653 9.87234 36.4813L13.3118 34.4001C13.4054 34.3429 13.513 34.3126 13.6227 34.3126C13.7324 34.3126 13.8399 34.3429 13.9335 34.4001L20.5335 38.4692C21.9053 39.3181 23.551 39.6068 25.1298 39.2753L38.3522 36.5204C38.7245 36.4435 39.0517 36.2236 39.2636 35.908C39.4756 35.5924 39.5553 35.2063 39.4857 34.8326C39.4509 34.6426 39.3785 34.4614 39.2729 34.2998C39.1672 34.1381 39.0303 33.9991 38.8703 33.8909C38.7102 33.7828 38.5302 33.7077 38.3408 33.67C38.1513 33.6323 37.9563 33.6328 37.767 33.6714L27.9163 35.669C27.7959 35.6934 27.671 35.68 27.5585 35.6307C27.446 35.5814 27.3515 35.4985 27.2879 35.3935C27.2243 35.2884 27.1947 35.1663 27.2032 35.0437C27.2116 34.9212 27.2577 34.8043 27.3351 34.7089C27.4647 34.5492 27.5586 34.3634 27.6102 34.1643C27.6618 33.9651 27.67 33.7572 27.6343 33.5545C27.5985 33.3519 27.5196 33.1594 27.4029 32.9899C27.2862 32.8204 27.1345 32.678 26.958 32.5723L18.1747 27.3125C17.4869 26.9025 16.6965 26.6969 15.896 26.7199C15.0956 26.7428 14.3183 26.9932 13.655 27.4419L10.5161 29.575C10.3852 29.6639 10.2245 29.6971 10.0692 29.6675C9.91381 29.6378 9.77662 29.5477 9.68776 29.4168C9.5989 29.286 9.56564 29.1253 9.5953 28.9699C9.62497 28.8146 9.71512 28.6774 9.84594 28.5885L12.9858 26.455C13.8374 25.8792 14.8353 25.5579 15.8629 25.5286C16.8904 25.4993 17.9051 25.7632 18.7881 26.2895L27.5709 31.548C28.0293 31.8223 28.3932 32.2299 28.614 32.7164C28.8348 33.2028 28.9021 33.745 28.8069 34.2707L37.5272 32.5041C37.8716 32.4343 38.2263 32.4338 38.5709 32.5026C38.9154 32.5713 39.2428 32.708 39.534 32.9045C39.8252 33.1011 40.0743 33.3537 40.2669 33.6475C40.4595 33.9414 40.5916 34.2707 40.6556 34.6161C40.7819 35.2964 40.6367 35.9991 40.251 36.5735C39.8653 37.148 39.2699 37.5484 38.5925 37.6891L25.37 40.4435C24.8641 40.5501 24.3484 40.6042 23.8313 40.6049Z" fill="#69EDFE"/>
<path d="M9.32805 39.2894H4.74853C4.3645 39.2884 3.99648 39.1354 3.72502 38.8638C3.45355 38.5921 3.30075 38.224 3.30005 37.84V28.2854C3.30098 27.9015 3.45388 27.5336 3.72533 27.2622C3.99677 26.9908 4.36465 26.8378 4.74853 26.8369H9.32805C9.71192 26.8378 10.0798 26.9908 10.3513 27.2622C10.6227 27.5336 10.7756 27.9015 10.7765 28.2854V37.84C10.7758 38.224 10.623 38.5921 10.3516 38.8638C10.0801 39.1354 9.71208 39.2884 9.32805 39.2894ZM4.74853 28.028C4.68101 28.0289 4.61652 28.0561 4.56877 28.1039C4.52103 28.1516 4.4938 28.2161 4.49289 28.2836V37.84C4.4938 37.9075 4.52103 37.972 4.56877 38.0198C4.61652 38.0675 4.68101 38.0947 4.74853 38.0956H9.32805C9.39549 38.0946 9.45987 38.0673 9.50752 38.0196C9.55518 37.9719 9.58234 37.9074 9.58325 37.84V28.2854C9.5828 28.2176 9.55583 28.1528 9.50813 28.1047C9.46043 28.0565 9.39579 28.029 9.32805 28.028H4.74853Z" fill="#69EDFE"/>
<path d="M24.8318 24.6726C24.3332 24.6791 23.8458 24.5248 23.4418 24.2326C22.7677 23.7403 22.4197 22.9153 22.4615 21.9094C22.4998 20.9929 22.8645 20.0174 23.4889 19.1621C24.7649 17.4153 28.2176 16.7861 28.3641 16.7601C28.4432 16.7461 28.5244 16.7482 28.6026 16.7664C28.6809 16.7845 28.7547 16.8183 28.8196 16.8657C28.8845 16.9131 28.9391 16.9731 28.9803 17.0421C29.0214 17.1112 29.0481 17.1878 29.0589 17.2674C29.0791 17.4148 29.5323 20.8957 28.2567 22.6425C27.6328 23.4974 26.8144 24.1424 25.9529 24.4583C25.5947 24.5951 25.2152 24.6676 24.8318 24.6726ZM27.9373 18.0766C26.8474 18.3525 25.1213 18.9517 24.4521 19.8674C23.9654 20.534 23.6816 21.278 23.653 21.9618C23.6389 22.3063 23.6834 22.9342 24.1449 23.2712C24.6065 23.6083 25.2185 23.4595 25.5424 23.3407C26.1848 23.1049 26.8069 22.6081 27.2936 21.9415C27.9619 21.0259 28.0068 19.199 27.9373 18.0766Z" fill="#69EDFE"/>
<path d="M21.2775 24.6726C20.8942 24.6683 20.5147 24.5965 20.1564 24.4605C19.2949 24.1446 18.4765 23.4996 17.8525 22.6447C16.5765 20.8979 17.0302 17.417 17.0504 17.2696C17.0614 17.1901 17.0883 17.1137 17.1295 17.0449C17.1707 16.976 17.2254 16.9162 17.2902 16.869C17.3551 16.8218 17.4288 16.7882 17.507 16.7701C17.5852 16.7521 17.6662 16.75 17.7452 16.7641C17.8917 16.79 21.3453 17.4192 22.6204 19.166C23.2447 20.0201 23.6095 20.9951 23.6478 21.9121C23.6896 22.9179 23.3398 23.7429 22.6675 24.2352C22.2631 24.5265 21.7758 24.6798 21.2775 24.6726ZM18.172 18.0766C18.1025 19.1986 18.1473 21.0246 18.8157 21.9415C19.3023 22.6081 19.9245 23.1049 20.5669 23.3407C20.8907 23.4595 21.5028 23.6083 21.9643 23.2712C22.4259 22.9342 22.4703 22.3063 22.4558 21.9618C22.4277 21.278 22.1439 20.534 21.6572 19.8674C20.988 18.9517 19.2619 18.3525 18.172 18.0766Z" fill="#69EDFE"/>
<path d="M23.056 30.1361C22.8978 30.1361 22.7461 30.0733 22.6342 29.9615C22.5224 29.8497 22.4594 29.6981 22.4593 29.5399V15.4881C22.4572 15.4084 22.471 15.3291 22.5 15.2548C22.529 15.1806 22.5726 15.1129 22.6282 15.0558C22.6838 14.9986 22.7502 14.9532 22.8237 14.9222C22.8971 14.8912 22.976 14.8752 23.0557 14.8752C23.1355 14.8752 23.2144 14.8912 23.2878 14.9222C23.3612 14.9532 23.4277 14.9986 23.4833 15.0558C23.5389 15.1129 23.5825 15.1806 23.6115 15.2548C23.6405 15.3291 23.6543 15.4084 23.6522 15.4881V29.5399C23.6522 29.698 23.5894 29.8497 23.4775 29.9615C23.3657 30.0733 23.2141 30.1361 23.056 30.1361Z" fill="#69EDFE"/>
<path d="M23.056 16.085C19.5576 16.085 16.7117 13.239 16.7117 9.7406C16.7117 6.24216 19.5563 3.39624 23.056 3.39624C26.5558 3.39624 29.4004 6.24216 29.4004 9.7406C29.4004 13.239 26.5532 16.085 23.056 16.085ZM23.056 4.58908C22.037 4.58873 21.0407 4.8906 20.1932 5.45652C19.3458 6.02243 18.6851 6.82696 18.2949 7.76835C17.9047 8.70974 17.8025 9.74571 18.0011 10.7452C18.1997 11.7447 18.6903 12.6629 19.4108 13.3836C20.1313 14.1042 21.0493 14.595 22.0488 14.7939C23.0483 14.9928 24.0842 14.8908 25.0257 14.5009C25.9672 14.1109 26.7719 13.4505 27.3381 12.6032C27.9042 11.7558 28.2063 10.7597 28.2062 9.7406C28.2047 8.37503 27.6617 7.06579 26.6962 6.10006C25.7307 5.13433 24.4216 4.59094 23.056 4.58908Z" fill="#69EDFE"/>
<path d="M23.2113 12.3468H21.9323C21.7741 12.3468 21.6225 12.284 21.5107 12.1722C21.3989 12.0604 21.3361 11.9087 21.3361 11.7506C21.3361 11.5925 21.3989 11.4408 21.5107 11.329C21.6225 11.2172 21.7741 11.1544 21.9323 11.1544H23.2113C23.3093 11.1543 23.4032 11.1153 23.4724 11.046C23.5416 10.9767 23.5805 10.8828 23.5805 10.7848V10.6282C23.5805 10.5303 23.5416 10.4364 23.4724 10.3671C23.4031 10.2979 23.3092 10.259 23.2113 10.259H22.8981C22.4902 10.2493 22.1023 10.0805 21.8173 9.78863C21.5323 9.49676 21.3727 9.10497 21.3727 8.69701C21.3727 8.28905 21.5323 7.89726 21.8173 7.60539C22.1023 7.31351 22.4902 7.14469 22.8981 7.13501H24.1771C24.3325 7.13923 24.4801 7.20392 24.5885 7.31531C24.6969 7.4267 24.7576 7.576 24.7576 7.73143C24.7576 7.88686 24.6969 8.03616 24.5885 8.14755C24.4801 8.25894 24.3325 8.32363 24.1771 8.32785H22.8981C22.8485 8.32614 22.7991 8.33443 22.7528 8.35222C22.7064 8.37001 22.6642 8.39694 22.6285 8.43141C22.5928 8.46588 22.5645 8.50718 22.5451 8.55285C22.5257 8.59852 22.5157 8.64762 22.5157 8.69723C22.5157 8.74684 22.5257 8.79594 22.5451 8.84161C22.5645 8.88728 22.5928 8.92858 22.6285 8.96305C22.6642 8.99752 22.7064 9.02445 22.7528 9.04224C22.7991 9.06003 22.8485 9.06832 22.8981 9.06661H23.2113C23.6255 9.06708 24.0225 9.23179 24.3153 9.52462C24.6082 9.81745 24.7729 10.2145 24.7733 10.6286V10.7852C24.7729 11.1993 24.6081 11.5963 24.3153 11.8891C24.0225 12.1818 23.6254 12.3465 23.2113 12.3468Z" fill="#69EDFE"/>
<path d="M23.056 8.32745C22.9777 8.32745 22.9001 8.31202 22.8278 8.28203C22.7554 8.25204 22.6897 8.20808 22.6343 8.15267C22.5789 8.09727 22.535 8.03149 22.5051 7.9591C22.4752 7.88672 22.4598 7.80914 22.4598 7.73081V6.24317C22.4598 6.08505 22.5227 5.9334 22.6345 5.8216C22.7463 5.70979 22.8979 5.64697 23.056 5.64697C23.2142 5.64697 23.3658 5.70979 23.4776 5.8216C23.5894 5.9334 23.6522 6.08505 23.6522 6.24317V7.73081C23.6523 7.80914 23.6369 7.88672 23.607 7.9591C23.577 8.03149 23.5331 8.09727 23.4778 8.15267C23.4224 8.20808 23.3567 8.25204 23.2843 8.28203C23.2119 8.31202 23.1344 8.32745 23.056 8.32745Z" fill="#69EDFE"/>
<path d="M23.056 13.835C22.8979 13.835 22.7463 13.7722 22.6345 13.6604C22.5227 13.5486 22.4598 13.3969 22.4598 13.2388V11.7507C22.4598 11.5926 22.5227 11.441 22.6345 11.3292C22.7463 11.2174 22.8979 11.1545 23.056 11.1545C23.2142 11.1545 23.3658 11.2174 23.4776 11.3292C23.5894 11.441 23.6522 11.5926 23.6522 11.7507V13.2388C23.6522 13.3969 23.5894 13.5486 23.4776 13.6604C23.3658 13.7722 23.2142 13.835 23.056 13.835Z" fill="#69EDFE"/>
</svg>
