<svg width="44" height="44" viewBox="0 0 44 44" fill="none" xmlns="http://www.w3.org/2000/svg">
<g clip-path="url(#clip0_2179_383)">
<path d="M23.9998 42.5788C24.3601 42.2185 24.6064 41.7746 24.7217 41.2911C25.1254 41.5103 25.573 41.6206 26.0209 41.6206C26.7175 41.6206 27.4141 41.3554 27.9445 40.8251C28.3755 40.394 28.6434 39.8436 28.7187 39.2485C28.7031 39.3732 29.5476 39.3512 29.6321 39.3504C30.2318 39.3441 30.9147 39.1574 31.3296 38.6999C31.5608 38.445 31.7101 38.1297 31.8435 37.816C31.8833 37.7222 32.2201 36.8304 32.1381 36.8146C32.3085 36.8476 32.4833 36.8647 32.6607 36.8647C33.3874 36.8647 34.0705 36.5817 34.5843 36.0679C35.6449 35.0073 35.6449 33.2815 34.5843 32.2208L34.3692 32.0058C35.1002 31.0647 35.4306 29.8504 35.2587 28.6594C35.1954 28.2212 35.3445 27.7729 35.6576 27.4599L36.9823 26.1352L37.8226 26.9755C38.0891 27.242 38.4435 27.3888 38.8205 27.3888C39.1974 27.3888 39.5518 27.242 39.8184 26.9755L43.4161 23.3779C43.9662 22.8276 43.9662 21.9323 43.416 21.3821L33.936 11.9024C33.6695 11.6358 33.315 11.489 32.9381 11.489C32.5612 11.489 32.2068 11.6358 31.9402 11.9024L28.3426 15.5C27.7924 16.0501 27.7924 16.9455 28.3426 17.4958L29.1829 18.3361L28.4157 19.1032C28.0717 19.4473 27.5828 19.5888 27.1079 19.4821L24.9462 18.9954C23.6182 18.6964 22.263 18.884 21.0971 19.4941C20.1266 19.1436 19.0875 19.0655 18.0683 19.2713L16.8829 19.5104C16.4183 19.6042 15.941 19.4601 15.6059 19.125L14.8171 18.3362L15.6574 17.4959C16.2076 16.9456 16.2076 16.0503 15.6573 15.5001L12.0599 11.9024C11.7934 11.6358 11.4389 11.489 11.062 11.489C10.685 11.489 10.3306 11.6358 10.0641 11.9024L0.584202 21.3821C0.0339443 21.9324 0.0339443 22.8278 0.584202 23.378L4.18172 26.9755C4.4483 27.242 4.8027 27.3888 5.17962 27.3888C5.55663 27.3888 5.91104 27.242 6.17753 26.9755L7.01783 26.1352L8.34255 27.46C8.65562 27.773 8.80473 28.2213 8.74139 28.6594C8.65545 29.2544 8.63801 29.7236 8.78642 30.2635L7.39965 31.6502C6.38103 32.6688 6.38103 34.3262 7.39965 35.3447C7.76093 35.706 8.20273 35.9385 8.66765 36.0435C8.26358 36.9953 8.44834 38.1396 9.22324 38.9144C9.71669 39.4079 10.3727 39.6796 11.0705 39.6796C11.3038 39.6796 11.5323 39.6486 11.7518 39.5896C11.832 40.1226 12.0765 40.6354 12.486 41.0449C12.9953 41.5542 13.6643 41.8089 14.3333 41.8089C14.5398 41.8089 14.7461 41.7845 14.9479 41.736C15.0209 42.285 15.2674 42.815 15.6883 43.236C16.1976 43.7452 16.8666 43.9999 17.5355 43.9999C18.2046 43.9999 18.8736 43.7453 19.3829 43.236L20.0963 42.5225L20.1525 42.5787C20.6663 43.0925 21.3495 43.3755 22.0761 43.3755C22.8029 43.3756 23.486 43.0926 23.9998 42.5788ZM32.9381 12.9002L42.418 22.38L38.8204 25.9776L29.3405 16.4978L32.9381 12.9002ZM24.6362 20.372L26.7978 20.8587C27.7474 21.0726 28.7253 20.7893 29.4137 20.1009L30.1807 19.3338L35.9842 25.1372L34.6595 26.4618C34.0335 27.0877 33.7352 27.9846 33.8617 28.8609C33.9702 29.6129 33.7844 30.3784 33.3601 30.9967L24.9795 22.6162C24.7258 22.3625 24.322 22.3396 24.0412 22.563L21.6589 24.459C21.4177 24.6509 21.329 24.9772 21.4399 25.2649L21.6295 25.7565C22.0493 26.8454 21.5831 28.0688 20.5452 28.6023L20.3857 28.6842L18.4287 24.8235C18.2212 24.4142 18.2999 23.921 18.6244 23.5965L20.7125 21.5085C21.745 20.4763 23.2118 20.0514 24.6362 20.372ZM5.17971 25.9776L1.58211 22.38L11.0619 12.9003L14.66 16.4973L5.17971 25.9776ZM8.39764 32.6482L10.2818 30.764C10.5087 30.5371 10.8103 30.4122 11.1311 30.4122C11.4519 30.4122 11.7537 30.5371 11.9805 30.764C12.4488 31.2324 12.4488 31.9945 11.9805 32.4627L10.0963 34.3469C9.62784 34.8154 8.86583 34.8153 8.39755 34.3469C7.92928 33.8786 7.92928 33.1166 8.39764 32.6482ZM10.2212 37.9166C9.99436 37.6897 9.86941 37.3881 9.86941 37.0673C9.86941 36.7464 9.99436 36.4447 10.2212 36.2179L13.4841 32.955C13.7183 32.7208 14.0259 32.6038 14.3335 32.6038C14.6411 32.6038 14.9487 32.7208 15.1828 32.955C15.6512 33.4234 15.6512 34.1855 15.1828 34.6537L11.92 37.9166C11.6931 38.1435 11.3914 38.2684 11.0706 38.2684C10.7498 38.2684 10.4481 38.1435 10.2212 37.9166ZM13.4841 40.0471C13.2572 39.8202 13.1323 39.5186 13.1323 39.1978C13.1323 38.8769 13.2572 38.5752 13.4841 38.3484L15.338 36.4945C15.5722 36.2603 15.8798 36.1433 16.1874 36.1433C16.495 36.1433 16.8026 36.2603 17.0368 36.4945C17.5051 36.9629 17.5051 37.725 17.0368 38.1932L16.5321 38.6979C16.5318 38.6982 15.1828 40.0472 15.1828 40.0472C14.956 40.274 14.6543 40.399 14.3335 40.399C14.0126 40.3989 13.711 40.274 13.4841 40.0471ZM19.2278 41.3954L18.3851 42.2381C17.9167 42.7066 17.1547 42.7065 16.6864 42.2381C16.2182 41.7699 16.2181 41.0083 16.686 40.5399L17.5297 39.6963C17.7638 39.4624 18.0712 39.3455 18.3785 39.3455C18.6862 39.3455 18.9937 39.4625 19.2279 39.6967C19.6962 40.165 19.6962 40.9271 19.2278 41.3954ZM20.8768 41.3071C21.1472 40.4139 20.9305 39.4035 20.2257 38.6987C19.8048 38.2778 19.2747 38.0313 18.7258 37.9584C18.9314 37.1029 18.7012 36.163 18.0348 35.4965C17.6694 35.1312 17.2217 34.8976 16.7509 34.7944C17.1364 33.8495 16.9464 32.7229 16.1807 31.9572C15.5143 31.2907 14.5744 31.0606 13.7189 31.2662C13.6458 30.7173 13.3994 30.1871 12.9785 29.7662C12.485 29.2727 11.829 29.001 11.1312 29.001C10.7692 29.001 10.4186 29.0748 10.0959 29.2141C10.1049 29.1084 10.1193 28.9928 10.1383 28.8613C10.2648 27.985 9.9666 27.0881 9.34063 26.4622L8.01591 25.1374L13.8194 19.3341L14.6082 20.1229C15.2784 20.7931 16.2334 21.0814 17.1622 20.8938L18.3476 20.6547C18.7743 20.5686 19.2054 20.5511 19.6298 20.5961L17.6267 22.5991C16.8695 23.3564 16.6861 24.5068 17.1702 25.4621L19.1272 29.3228C19.2983 29.6604 19.5908 29.9106 19.9507 30.0273C20.3108 30.1441 20.6944 30.113 21.0311 29.9401L21.1906 29.8581C22.8716 28.9942 23.6265 27.0129 22.9466 25.2494L22.9434 25.2411L24.4274 24.06L33.5865 33.2191C34.0969 33.7295 34.0969 34.56 33.5865 35.0704C33.145 35.5119 32.4589 35.5647 31.939 35.2307C31.5457 34.9781 30.1826 33.5248 29.826 33.1704C29.1601 32.5085 28.494 31.8466 27.8281 31.1847C27.7919 31.1487 27.7557 31.1127 27.7194 31.0767C27.443 30.8019 26.9962 30.8033 26.7215 31.0798C26.4467 31.3562 26.4481 31.8029 26.7246 32.0777L30.3549 35.6858C30.6022 35.9331 30.7384 36.2618 30.7384 36.6116C30.7384 36.9851 30.5322 37.3296 30.3073 37.6136C29.8621 38.1757 28.9594 37.9929 28.5056 37.5392L24.5476 33.5499C24.2731 33.2733 23.8263 33.2717 23.5497 33.546C23.2731 33.8205 23.2714 34.2673 23.5458 34.5439L26.9016 37.9262C26.9158 37.9434 26.9307 37.9602 26.9468 37.9762C27.1941 38.2235 27.3303 38.5522 27.3303 38.9019C27.3303 39.2516 27.1941 39.5803 26.9468 39.8275C26.4364 40.3379 25.6059 40.3379 25.0956 39.8275L21.5911 36.3231C21.3156 36.0475 20.8687 36.0475 20.5932 36.3231C20.3176 36.5986 20.3176 37.0455 20.5932 37.321L23.0022 39.73C23.5126 40.2404 23.5126 41.0709 23.0022 41.5812C22.755 41.8285 22.4262 41.9647 22.0766 41.9647C21.7269 41.9647 21.3982 41.8285 21.1509 41.5812L20.8768 41.3071Z" fill="#69EDFE"/>
<path d="M22.4588 11.29V0.705633C22.4588 0.315906 22.1428 0 21.7531 0C21.3634 0 21.0475 0.315906 21.0475 0.705633V11.29C21.0475 11.6798 21.3634 11.9957 21.7531 11.9957C22.1428 11.9957 22.4588 11.6798 22.4588 11.29Z" fill="#69EDFE"/>
<path d="M17.9024 13.3768C18.0402 13.5145 18.2208 13.5834 18.4014 13.5834C18.5819 13.5834 18.7626 13.5145 18.9003 13.3768C19.1759 13.1012 19.1759 12.6544 18.9003 12.3789L12.1969 5.67539C11.9213 5.39987 11.4745 5.39987 11.1989 5.67539C10.9233 5.9509 10.9233 6.39778 11.1989 6.67329L17.9024 13.3768Z" fill="#69EDFE"/>
<path d="M25.6038 13.3768L32.3072 6.67329C32.5828 6.39778 32.5828 5.9509 32.3072 5.67539C32.0317 5.39987 31.5849 5.39987 31.3093 5.67539L24.6059 12.3789C24.3303 12.6544 24.3303 13.1012 24.6059 13.3768C24.7436 13.5145 24.9242 13.5834 25.1048 13.5834C25.2854 13.5834 25.466 13.5145 25.6038 13.3768Z" fill="#69EDFE"/>
</g>
<defs>
<clipPath id="clip0_2179_383">
<rect width="44" height="44" fill="white"/>
</clipPath>
</defs>
</svg>
