<svg width="44" height="44" viewBox="0 0 44 44" fill="none" xmlns="http://www.w3.org/2000/svg">
<path d="M42.2125 19.1125L22 3.98755L15.8125 8.5938V4.12505H10.3125V12.7188L1.78748 19.1125L4.67498 22.9626L7.56248 20.7626V39.875H36.4375V20.7626L39.325 22.9626L42.2125 19.1125ZM11.6875 5.50005H14.4375V9.62505L11.6875 11.6875V5.50005ZM35.0625 38.5H8.93748V19.7313L22 9.8313L35.0625 19.7313V38.5ZM22 8.0438L4.94998 21.1063L3.71248 19.4563L22 5.7063L40.2875 19.3876L39.05 21.0375L22 8.0438Z" fill="#69EDFE"/>
<path d="M20.625 15.8125V18.15C19.0438 18.7 17.875 20.2125 17.875 22C17.875 23.0312 18.2875 23.9937 18.9062 24.75C19.6625 25.575 20.7625 26.125 22 26.125C22.7562 26.125 23.375 26.7437 23.375 27.5C23.375 28.2563 22.7562 28.875 22 28.875C21.5187 28.875 21.0375 28.6 20.8312 28.1875H17.9438C18.2188 29.7 19.25 30.8687 20.625 31.35V33.6875H23.375V31.35C24.9563 30.8 26.125 29.2875 26.125 27.5C26.125 26.4688 25.7125 25.5063 25.0938 24.75C24.3375 23.925 23.2375 23.375 22 23.375C21.2438 23.375 20.625 22.7562 20.625 22C20.625 21.2438 21.2438 20.625 22 20.625C22.4812 20.625 22.9625 20.9 23.1688 21.3125H26.0563C25.7813 19.8 24.75 18.6312 23.375 18.15V15.8125H20.625Z" fill="#69EDFE"/>
</svg>
