<svg width="44" height="44" viewBox="0 0 44 44" fill="none" xmlns="http://www.w3.org/2000/svg">
<path d="M30.4305 34.3407L28.0914 31.6951L26.16 33.4029L30.3473 38.1387L37.1294 31.1136L35.2746 29.323L30.4305 34.3407Z" fill="#69EDFE"/>
<path d="M31.7498 22.802C31.5148 22.802 31.2817 22.8105 31.0505 22.8256L30.303 10.0308H24.2032V7.54285C24.2031 3.38372 20.8194 0 16.6603 0C12.5011 0 9.1174 3.38372 9.1174 7.54285V10.0308H3.01753L1.66264 33.223C1.55719 35.0289 2.18265 36.7481 3.42385 38.0638C4.66505 39.3796 6.34479 40.1043 8.15361 40.1043H23.5461C25.4914 42.4806 28.4464 44 31.7498 44C37.5941 44 42.3488 39.2453 42.3488 33.401C42.3488 27.5567 37.5941 22.802 31.7498 22.802ZM11.6954 7.54285C11.6954 4.8053 13.9226 2.57814 16.6602 2.57814C19.3977 2.57814 21.625 4.8053 21.625 7.54285V10.0308H11.6954V7.54285ZM8.15361 37.5261C7.06203 37.5261 6.0483 37.0888 5.29927 36.2947C4.55023 35.5007 4.1728 34.4631 4.23639 33.3734L5.4494 12.609H9.11732V15.8392H11.6954V12.609H21.625V15.8392H24.2031V12.609H27.871L28.4964 23.3136C24.2389 24.6899 21.1508 28.6914 21.1508 33.4011C21.1508 34.8635 21.4486 36.2577 21.9866 37.5262H8.15361V37.5261ZM31.7498 41.4219C27.3271 41.4219 23.729 37.8237 23.729 33.401C23.729 28.9782 27.3271 25.3801 31.7498 25.3801C36.1725 25.3801 39.7707 28.9782 39.7707 33.401C39.7707 37.8237 36.1725 41.4219 31.7498 41.4219Z" fill="#69EDFE"/>
</svg>
